<svg id="svg-shapes" xmlns="http://www.w3.org/2000/svg" viewBox="0 0 562.75 530.93">
  <title>3-simple-shapes</title>
  <g id="circle">
    <path id="inner-circle" d="M71,283.27V250.35l1.57-8.15H73l.5,9.27c1.54-9.17,2.9-17,4.17-24.81,1-6.41,4.54-11.61,10.22-13.94C97,209,98.11,201.64,98.67,194.33l-20.78,18c-.15-6.21,4.86-9.47,9.68-13a17.71,17.71,0,0,0,5.36-5.48c8.46-16,16.44-32.29,25-48.24s19-30.52,32.22-42.94c7.94-7.44,16.79-13.07,28.27-13.16,1.45,0,3-1.16,4.31-2.1,11.32-8.21,22.44-16.7,33.93-24.66,3.58-2.48,8.1-3.61,12.19-5.35l.57,1.19L224,63.75c9.54-4.43,18-11,28.93-11.66,6.64-.43,13.23-1.74,19.86-1.91,19.11-.48,38.34-1.9,56.82,5a3.18,3.18,0,0,0,1.88.1c4.21-1.24,7.16.76,10.16,3.38a54.08,54.08,0,0,0,9.63,7c6.29,3.4,12.86,6.29,19.3,9.41,26,12.6,50.66,26.8,68,51,2.45,3.43,6.36,5.82,9.59,8.69l1.41-1.35c-7-8.53-13.51-17.61-21.25-25.44s-16.87-14.51-25.38-21.69l.64-1.16c2.36,1.21,4.84,2.23,7.06,3.65,32.54,20.77,50,53.06,66.14,86.33,1.66,3.42,3,7.09,5.18,10.15,7.78,10.95,10.89,23.38,12.29,36.41a46.31,46.31,0,0,1,0,4.86l-1.32.06q-4.62-12.91-9.23-25.83c-.56,8.27.23,16.16.46,24.07.11,3.51,1,5.33,4.53,6.48,8,2.63,12.95,8,13.58,16.79a10.52,10.52,0,0,0,.73,2.36v29.93c-.29,1.28-.65,2.55-.86,3.84-1.6,10-2.82,20-4.89,29.88-1.25,5.95-4.92,11.52-5.49,17.45-.66,7-4.46,11.28-8.5,16.15-7.64,9.2-15.66,18.26-22,28.35-18.62,29.81-44.22,51.46-75.29,67.27-5.72,2.91-11,6.68-16.51,10-1.57,1-3.16,1.89-4.74,2.84l-.73-.92,6.24-7.6c-5,1.94-9.41,4.69-14.07,6.76a28.67,28.67,0,0,0-11.7,9.51,33.11,33.11,0,0,1-21.17,13c-5.83,1-11.55,2.63-17.32,4H269c-4.06-.67-8.11-1.43-12.19-2-34.24-4.91-65.7-17-93.64-37.38-7.33-5.34-13.15-12.76-19.66-19.22,26.74,20,46.26,31.34,55.38,31.84C188.65,448,176.2,442,165.47,433.8s-20-18.73-29.78-28.31A122.07,122.07,0,0,1,112,372.34c-6-12.11-11.64-24.45-17.43-36.68,6,25.94,13.43,51.27,31.56,72-1,0-1.48-.19-1.77-.54-14.2-16.88-27.37-34.22-32.62-56.4C89,339,84.64,327.7,81,316.21l-1.43.46,8.17,24.12a4.25,4.25,0,0,1-2.42-2.45c-3.79-11.81-7.84-23.56-11.13-35.51C72.44,296.5,72,289.8,71,283.27ZM209.25,422.15c17.42,7.86,35.1,15.55,54.71,17.14a121.64,121.64,0,0,1,18.73,2.81c12.71,3.07,24.55,4.76,37.74-.81,25.16-10.63,49-23.32,71.21-39,8.64-6.11,18.24-12.2,24.12-20.59a214.87,214.87,0,0,0,30.31-62c6.19-20.81,9.05-42.15,11.7-63.64,3.48-28.14-6.31-52.25-20.22-75.44-4.62-7.7-8.71-16.24-15.07-22.28a583.79,583.79,0,0,0-45.42-38.88C351,99.26,321.8,86.13,288.12,85.1a7.71,7.71,0,0,1-2-.21c-13.23-4-26.05-1.4-38.71,2.59-8.74,2.76-17.44,5.65-26.05,8.77-6.08,2.21-12.46,4.15-17.89,7.51-18.65,11.55-34.75,26.21-49.86,42-13,13.63-20,30.83-28.41,47.19-.52,1-1.21,2.31-1,3.28,1.87,8-2.26,14.43-5,21.34a104.49,104.49,0,0,0-6,19.35c-1.24,6.66-.39,13.71-1.77,20.32a37,37,0,0,0,1.28,20.06c3.62,10.52,7.74,20.86,11.4,31.37,10.35,29.7,23.88,57.78,43.41,82.61,4,5.05,9.51,9.25,15.06,12.63,9.23,5.62,19.07,10.22,28.61,15.33,2.09,1.12,4,2.59,6,3.89l-.5,1Zm1.29-339.23,59-8.16c-7.62-2.69-15.68-.22-23.2-3.84a13.51,13.51,0,0,1,7-2.87,128.93,128.93,0,0,1,36,2.7,772.11,772.11,0,0,1,76.52,21,18.29,18.29,0,0,0,2.34.47c-8.5-6.41-17.88-11.75-24.9-19.29-6.5-7-14.07-11.36-22.14-15.57a11,11,0,0,1-1.75-1C313.18,51.63,306.07,52.5,298,53c6.12,1.49,11.27,2.69,16.39,4s8.66,4.42,10,9.95c.39,1.58,2.54,3.07,4.23,3.92,5.17,2.58,10.61,4.62,15.71,7.33,1.71.9,2.71,3.16,4.79,5.75-2.11-.35-2.71-.27-3-.53-9.31-8-20.88-8.8-32.28-9.87-4.91-.46-9.52-.85-12.9-5.17-1-1.3-3-2-4.74-2.57-8.91-2.71-17.87-5.27-26.82-7.86C262.73,56,256.56,56.79,250,59.55A182,182,0,0,0,210.54,82.92Zm-66,323.16-37.27-53.35c12,37.25,58.08,85.1,92.61,92.43.24,0,.52-.15.79-.23l-2-3.43c6.38,2.29,11.7,4.21,17,6.1.24.08.58-.15,1-.27l-14.86-10.45.52-1.11h3.45c-21.3-11.9-43.9-21.09-63.45-37.44ZM110.55,284.13c-3.4,39,20.71,89.08,44.67,100.58C136.22,353.11,120.88,320.34,110.55,284.13ZM256.64,458.84l-.05,1.48c4.81,1.78,9.83,3.13,14.38,5.43,11.39,5.73,22.86,5.54,34.86,2.22,13.09-3.62,26.9-5.48,35.64-18.41C313.56,456.62,285.16,458.26,256.64,458.84Zm242.29-180-2.23-.48c-13.17,39.62-39.26,71.45-62.53,105,17.84-16.34,35.11-33.07,45.41-55.55,4.24-9.24,9.59-17.86,17.57-24.54a4.55,4.55,0,0,0,1.7-2.83C499,293.28,498.93,286.07,498.93,278.87Zm-30.58,45.55h-.53a45.35,45.35,0,0,0,3.05-4.82c8-16.78,16.13-33.5,23.73-50.46,1.67-3.72,1.88-8.31,1.88-12.5,0-4.45-1-8.9-1.66-13.33-.88-5.53-3.65-7.75-9.12-8-1.62,15.19-2.22,30.54-5.12,45.45S472.52,309.87,468.35,324.42Zm-37.8-185.76c14,25.36,31.63,48.62,40,77,.17-10.46-.6-20.75-1.18-31.06-.29-5.22-2.93-8.75-6.72-12.17-5.53-5-10.51-10.58-15.63-16C441.5,150.55,436.05,144.58,430.55,138.66ZM91.16,270.4c-7.87,6.21-9.42,11.51-5.92,20.4.86,2.16,1.63,4.37,2.66,6.44,4.16,8.35,8.41,16.65,12.62,25-1.22-9-3.76-17.39-5.49-26S92.42,279,91.16,270.4Zm-11.82,3.11c14.53-10.4,14.75-25.75,16.23-42C84,244.06,80.35,258.21,79.34,273.51ZM225.59,85.11c-11.15,3.18-23.34,1.39-31.73,11.41-3,3.55-6.72,6.44-10,9.73s-6.35,6.61-9,9.35Zm-102,102.06-.89-.65c-6.48,10-13,20-19.35,30.09-1,1.56-1,3.68-1.67,6l5.73-1.34c-1.76,3.51-3.27,5.82-4.07,8.34s-.77,5-1.11,7.54l1.54.25Zm9.55-56.25,41.5-37.08C162.19,95.36,145.21,110.71,133.17,130.92ZM181.4,415.29c-22.65-11.61-39.67-29.18-53.91-49.79C136.61,391.66,158.31,404.29,181.4,415.29ZM99.05,262.58l-.93-.26c-.55,1.52-1.75,3.14-1.54,4.56q2.83,19.42,6.18,38.78c.2,1.17,1.84,2.1,2.82,3.14l1.18-.89ZM474.8,261.2l1.68.13c.43-4.81,1.27-9.62,1.2-14.42-.1-6.47,2.06-13.27-2.2-19.35-.39-.55.27-1.95.62-2.88s1.55-2.1,1.49-3.09c-.43-6.62-1.09-13.23-1.69-20C470.58,221.62,475.19,241.41,474.8,261.2ZM409.67,127.09c-16.74-18.7-39.1-27.11-62.39-33.82C369.94,101.08,390.41,112.89,409.67,127.09ZM385,415.45l-.27-.47-45.54,28.14c15.55-6.72,29.86-12.85,44.1-19.13,1.39-.62,2.39-2.14,3.56-3.24l-.57-.55L375,425.29l-.69-1.25ZM128.19,171.27c13-18.12,26-36.23,39.38-54.94C155.9,126.75,133,157.93,128.19,171.27Zm-25.77,36.25,1.44.47,24.67-50.11C117,173,107.66,189.24,102.42,207.52Zm168.66,244.4-50.3-16.71C235.72,447,253,448.7,271.08,451.92ZM294,58.91c3.78,2.07,7.94,3.16,10.19,5.85,4.29,5.11,9.42,4.29,14.87,4.4C317.69,62.78,310.61,60,294,58.91ZM462.89,164.44l.91-.87c-7.61-14.09-20.37-23.32-32.16-33.43ZM386.56,435.78l.81,1.16,27.08-17.77c-.18-.29-.35-.58-.52-.87l-4.58,1.53,1-2.86-.9-.84ZM249.81,470.23l.65-1.22-38.58-15.26-1,2.64C222.83,463.71,237.39,464.13,249.81,470.23ZM95.06,213.91c-12.14,2.85-14.76,11.85-15.47,29.41,1.73-5.23,2.87-10.88,5.42-15.81C87.45,222.78,91.36,218.8,95.06,213.91Zm17.72,136.36c-2.83-13.67-12.55-23.11-19.88-34l-1.48.93ZM114,166.51l18.49-27.6C123.23,146.07,117.28,155.42,114,166.51ZM386.7,89.43c-.31.49-.61,1-.92,1.46l28.51,18.43.89-1.37ZM105.54,266.67l2.76-20.45C102.77,252.49,103.33,259.48,105.54,266.67ZM327.14,467l-22.84,6.26C311.94,472.74,320,473.7,327.14,467Zm-43.67-18.82.49-1.78-17-2.83-.24,1.3Zm-54.26,19.56c-.2.47-.39.94-.58,1.41l17.55,5.69.39-1.18ZM78.93,297.56l-2,1L84.07,310l1.26-.71ZM94,224.62l-1.78-.94L87,234.6l1.09.54Z"/>
    <path id="outer-circle2" d="M548,166.33c-23.17-38.87-50.69-73.71-88.6-99.4a73.58,73.58,0,0,0-12.78-7.14c7.15,8.25,14.28,16.53,21.51,24.72a7.57,7.57,0,0,0,3.69,2.39c11.79,2.68,20.21,10.49,28.66,18.33C524,127,536.8,154.92,547,184.46c6.44,18.65,8.35,38,8.77,57.46s1.12,39.3.25,58.89c-1.45,32.93-8.76,64.5-25.77,93.26-13.32,22.52-26.34,45.5-46.47,62.72-16.53,14.14-34.48,26.63-51.93,39.67-13.19,9.85-28,16.62-43.39,22.31a7.41,7.41,0,0,1-4.37.4c6.14-2.92,12.47-5.51,18.4-8.82,38.73-21.59,76-45.2,102.5-81.9,10.29-14.27,19-29.69,28-44.86,7.89-13.33,11.29-28.35,14.81-43.25a2.35,2.35,0,0,0-.72-2.13C543,346.32,537.66,354,535,362.59c-18.85,60.08-61.59,97.75-116.19,124.2-31.34,15.19-64.26,25.89-99,30C290.25,520.27,261,518,232,511.49c-12.81-2.88-26-4.19-38.87-6.66-23.68-4.55-43.51-17-62.56-31-30.34-22.31-53.06-51.67-75.45-81.31-5.15-6.82-9.71-14.1-14.86-20.9,21.75,59,62.43,101.77,115.57,134.21-1.46-.68-2.93-1.33-4.37-2.05s-3-1.5-4.41-2.35c-54.24-32-91.79-77.59-112.08-137.32C30.23,350.27,23.58,337,19.73,323c-6.91-25.22-11.5-51-9.86-77.34,1.22-19.6,7.25-38.08,13.4-56.6,11.1-33.42,29-62.25,55-86.12a63.75,63.75,0,0,0,8.64-10.3c33-46.67,77.85-76,133.11-88.93C235.51.07,252.1,1.15,268.19.32c7-.36,14,.06,21-.16,31.79-1,62.92,2.71,92.51,14.72C391.75,19,401.1,25.13,410.31,31.07c16.77,10.81,33.24,22.09,49.74,33.3,33.14,22.49,58.7,51.94,79,86.16C542.15,155.73,545,161.06,548,166.33Zm-44.28,47.75c-1.14-2.37-2.38-4.7-3.42-7.12q-6.93-16.12-13.77-32.29l-1.22.49c.62,3.41,1.31,6.8,1.84,10.23,1.71,11.12,2,22.35,5.68,33.3,10.42,30.88,11.94,63,10.28,95.18-.61,11.86-3.41,23.59-5.1,34.69,5.79-6.42,15.61-36.76,12.38-39.55l-1.54,2.51c.34-2.69.59-4.49.79-6.28,2-17.18,4.47-34.29,1.23-51.65-2.16-11.57-3.53-23.29-5.36-34.92-.11-.68-1.21-1.21-1.85-1.81.2-2,1-4.19.51-6-2.85-9.87-5.31-19.94-9.28-29.36-4.23-10-10-19.36-15.09-29l-.68.46ZM70.09,150.51c2.73-2.57,6-4.76,8.1-7.78,18.31-26.75,39.44-51,66.94-68.44,19.47-12.37,40.34-22.53,60.54-33.77,10.42-5.79,20.73-11.78,31.09-17.67-23.66,2.58-45,11.08-65.91,23.63H186a2.39,2.39,0,0,1-2.16,1.32,59.84,59.84,0,0,0-36.57,12.87C133.57,71.3,120,82.1,107,93.5a209.44,209.44,0,0,0-42.48,50.68c-2.39,4-3.75,8.63-5.59,13l.93.41,6.93-4.33C57,160,55.88,170.68,54,181.94c6.49-10.87,12.54-21,18.91-31.64Zm4.57,205c.1,1.4-.17,2.95.35,4.18a175.12,175.12,0,0,0,61.64,76.82c3,2.15,6.57,3.59,9.87,5.36-12.59-12.55-25.28-24.53-37.88-36.59A115.34,115.34,0,0,1,84,371c-2-4.17-4.68-8-7.06-12,.32-1.09,1.12-2.31.88-3.26-2.21-8.5-5.68-16.83-6.72-25.45-2.51-20.78-4.17-41.68-5.68-62.57-2.1-29.31,1.35-57.91,14.79-84.41,6-11.82,13.47-23,21-33.93,19.47-28.34,43-52,74.22-68.09,16.27-8.42,30.61-20.57,45.8-31.06.13-.09,0-.52,0-.93a67.75,67.75,0,0,0-31.37,15L189,62.76,205.56,51A151,151,0,0,0,189.05,56c-20.9,7.41-38.44,20.42-55.73,33.74C94.8,119.43,71.13,158.91,58.06,205.16,53.86,220,49.27,235.07,51,250.73,54.87,286.52,57.33,322.7,74.66,355.49ZM318.9,53.22a17.67,17.67,0,0,0-2.19-.87c-26.11-6.12-52.45-9.43-79.27-5.86-3.07.41-6.45,1-9,2.58-11.92,7.62-23.88,15.24-35.15,23.75-3.06,2.31-5.55,5.45-9.23,7.34C174.69,85,165,89.51,156.27,95.38c-14,9.4-26.85,20.33-36.86,34.1-9.09,12.49-17.67,25.35-26.84,37.79C73.11,193.69,66.68,224,67.28,255.82c.43,22.39,3.45,44.73,5.16,67.11a118.56,118.56,0,0,0,25.5,65.58c13.38,16.79,29.91,31.18,45.71,45.91a72.34,72.34,0,0,0,44.81,19.87c7,.54,13.95,2.9,20.92,4.43L209.1,460l-30.94-5.09a3.19,3.19,0,0,0,1.7,2.4c36.91,19.65,76,29.92,118.08,27.73a119,119,0,0,0,43.68-10.59l-44.15,5.39-.16-1.33c3.79-.46,7.56-1,11.36-1.35a198.11,198.11,0,0,0,68.48-18.92c38.11-18.42,70.13-45.19,100.92-73.61,2.14-2,3.46-4.83,5.15-7.28-29.37,29.48-61.08,55-101,71.38a13.39,13.39,0,0,1,1.43-1.7c1.14-.69,2.29-1.35,3.45-2,31.42-17.8,61.28-37.69,86.41-64,10.18-10.64,19.12-21.55,22.65-36.76,8.48-36.49,6.34-72.67-1-108.83-1.59-7.84-5.36-15.21-7.94-22.86-3-8.78-5.5-17.71-8.63-26.43-1.66-4.6-4.18-8.88-6.31-13.31l.93-.48,11.95,23c-1.17-13.86-2.3-27.77-10.26-39.58C459.72,133.16,444.7,110.26,421.11,95a11,11,0,0,1-1.76-2l2.47.16C403.25,75.85,380.61,67,356.42,61.33l47.75,29.26-1.08,1.87c-1.95-1.06-4-2-5.85-3.2-9.18-5.71-18.22-11.69-27.53-17.2-16.57-9.78-34.12-16.35-53.81-16-14.88.27-29.76,0-44.64,0l-.05-1.27ZM76,111.1l-1-.78c-35.15,32.2-50.75,74.55-60.35,119.46-7.47,34.94,1.45,68.77,10.83,102.27q-5-25.85-9.91-51.7c3.07,10.49,5,21.2,7.46,31.79,4.49,19.59,8.16,39.42,19.31,56.83,24.84,38.78,53,74.67,89.52,103.26,15.84,12.39,32.81,23.47,52.45,28.21,17.73,4.27,36,6.63,54.22,8.42,28.62,2.81,57.27,1.37,85.71-3,10.93-1.66,21.72-4.18,32.58-6.31-9.85.56-19.44,2.44-29.11,3.78s-19.18,2.3-28.8,3.06c-9.8.79-19.62,1.44-29.44,1.58-9.62.14-19.26-.43-25.58-.6,22.37-1.65,48-3,73.49-5.53,37.35-3.64,72.77-13.95,103.71-35.77,19-13.41,36.63-28.78,55-43.06a93.91,93.91,0,0,0,25.18-30c.86-1.59,2-3,3-4.53l.78.56-.42,2.87c8.11-13.07,15.57-26.32,17.82-41.84-14.91,25.29-30.54,50-52.44,69.93,21-23.86,38.24-50.27,52.47-78.64,2.57-5.12,4-10.81,6-16.23l-1.48-.55c-.69,1.47-1.42,2.93-2.06,4.42-9.11,21.2-20.36,41.17-34.81,59.21C466.54,417.7,438,441.44,405.82,461c-24.47,14.84-50.6,25.39-78.66,30.75-24.66,4.71-49.7,5.08-74.71,4.25-36.78-1.23-71.7-10.55-105.3-25.07a62,62,0,0,1-13.51-8.43,187.63,187.63,0,0,1-39-41.23A226.13,226.13,0,0,0,78.6,400.89c-12-13.7-23-28.1-31.65-44.13C28.18,322.14,20,285.19,25,246c2.19-17.07,7.27-33.76,10.55-50.71a165,165,0,0,1,30.57-68.68C69.8,121.76,72.7,116.3,76,111.1ZM392.1,63.68c11.27,8.51,22.46,17.11,33.8,25.51,26.75,19.78,46,46,63.36,73.78,11.37,18.2,17,38.49,20.45,59.48.64,3.93.78,7.94,1.36,11.88s1.38,7.76,2.09,11.64c.38-30.7-3.22-60.8-13.33-89.84-10.72-30.8-28-56.56-57.47-72.65-1.19-.65-2.43-1.19-3.65-1.79,22.4,19,38.59,42.48,52.69,67.66C466.82,111.05,439.85,75.55,392.1,63.68Zm84,30-1.49,1.5c7.05,10.26,13.81,20.74,21.23,30.74,13.46,18.17,25.3,37.11,31.35,59.17a16.26,16.26,0,0,0,2.36,4.91c6.34,8.95,8.91,19.15,10.65,29.77,3.1,18.84.45,37.41-1.34,56.14-1.22,12.8-2.34,25.4-7.33,37.42-1.24,3-1.06,6.52-1.72,11.06,1.32-1.47,1.76-1.77,1.92-2.19,3.54-9,7.17-17.9,10.52-26.94,17.28-46.58,10.74-91-13.37-133.29-8.29-14.55-18.11-28.34-28.27-41.7C493.34,110.7,484.33,102.47,476.1,93.65Zm-217.35-91C227.84.79,197.84,9.5,169.26,24.89,138.76,41.31,102.48,71,96.39,86.13c19.18-17.48,41.1-29,63.44-39.87,20-9.72,39.92-19.81,60.24-28.93C233,11.52,246.63,7.17,258.75,2.63ZM528.55,371.5c-11,13-21.7,25.92-32.75,38.53-15.13,17.27-30.14,34.64-50.17,46.79-14.5,8.81-28.63,18.25-42.78,27.63-15.14,10-31.32,17.77-49,21.75-15.46,3.47-31.15,6-46.74,8.9,2.75-.33,5.6-.06,8.38-.38a305.49,305.49,0,0,0,68.7-16.55c40.3-14.51,76.93-34.7,106.81-66.14C507.74,414.39,521,394.88,528.55,371.5Zm-25.64-17.33,1.28.44c1.89-3.49,3.87-6.93,5.64-10.48,12.38-24.87,17.61-51.52,19-79,1.1-21.6-4-42.63-7.44-63.76-3.72-22.61-13.73-43-23.42-63.45-3.57-7.53-8.09-14.63-12.18-21.92l-1.48.83c.69,1.22,1.34,2.47,2.08,3.66,18,29.13,26.64,61.19,28.61,95,1.33,22.89,1.32,45.87,1.67,68.81a151.55,151.55,0,0,1-1.17,17.91C513.64,320.08,511.57,337.89,502.91,354.17ZM38.54,280.58l-2.08.46c.62,32.24,7.92,62.67,25.19,90.4,17.36,27.9,53.22,65.47,65.15,68.16a13.74,13.74,0,0,0-.88-1.26c-28.09-31-53-64.07-66.6-104.39-1.55-4.62-4.25-8.86-6.42-13.28l-1.51.6q4,16.34,7.94,32.66l-.82.23Q48.54,317.37,38.54,280.58ZM361.47,48.93l.31-1.39a235.62,235.62,0,0,0-47.19-20.8A59.16,59.16,0,0,0,277,27c-3.31,1.12-6.76,1.87-10,3.21-8.77,3.65-17.44,7.53-26.15,11.31l.49,1.37c2.95-.19,5.91-.5,8.87-.54,11.64-.12,23.33-.9,34.9-.09C310.59,44,336,46.65,361.47,48.93ZM455,86.49c-1.25-1.07-2.49-2.15-3.76-3.2-25.15-20.8-53.63-36.35-82-52.14-17.6-9.79-36.41-9.11-53.77-8.83C329,28.46,343.92,34.88,358.52,41.9c8.21,4,15.52,10.07,24,13.15C407.33,64.1,432.45,72.28,455,86.49ZM356.72,482.22c-.13-.57-.25-1.13-.37-1.7a3.62,3.62,0,0,0-1-.09c-39.14,8.53-78.7,11.85-118.66,8.65-20.86-1.66-41.38-6.16-60.13-15.4-27.43-13.51-52.16-31.39-75.61-51-1-.88-2.17-1.66-3.27-2.48,17.14,23.37,35.28,45.42,64.5,54.23,4.62,1.39,9,3.39,13.61,5a267.77,267.77,0,0,0,67.33,13.69,333.53,333.53,0,0,0,74.79-2.29C331,488.85,343.8,485.13,356.72,482.22Zm197-210.6c-5.85,16.1-12.16,33.73-18.68,51.29-2.71,7.3-7,14.2-8.56,21.7a142.07,142.07,0,0,1-15.21,41c-.95,1.72-1.79,3.5-2.85,5.58,23.23-20.4,31.16-48.42,40.11-75.89l1.31.59q-4.34,14.23-8.66,28.48C552.33,330.1,556.16,306,553.69,271.62ZM117.8,424.72c23.88,37.28,98.32,69.08,145.6,62.77-.94-.3-1.86-.69-2.82-.9q-3.66-.78-7.35-1.45c-27.37-4.94-53.67-12.92-77.79-27.17a96.74,96.74,0,0,0-11.83-6.42C147.1,444.74,130.6,438,117.8,424.72ZM422.67,42.3C398.46,17.74,325.52-5.19,293.32,2.82c23.46,3.48,44.33,12.3,65.68,19.7S402,35.94,422.67,42.3ZM340.61,19.06C328.24,11.53,288.3,2.59,273.79,3.63,251.32,5.24,219,16.38,210.07,25.89a323.8,323.8,0,0,1,64.34-10.22C296.17,14.39,317.83,14.79,340.61,19.06Zm-309,201.3c-15,37.5-1,121.84,24.36,146.33-.81-1.61-1.3-2.62-1.82-3.61C40.77,337.7,35,310.49,34.19,282,33.59,261.63,32.48,241.27,31.58,220.36Zm20.85-49.55c-13.53,42.1-22.75,84.35-7.19,127.74,0-21.27-.94-42.74.26-64.08S50,192,52.43,170.81ZM380.58,468.28c14.35-8,27.7-15,40.61-22.75s25.86-15.9,34.89-28.62c-37.53,28.78-79.59,48.82-124.77,64.74,15.58.69,55.23-11.53,66.09-20.64Zm97.77-363.8c-5.44-9.71-11.7-18.51-20.46-25.58-22-17.8-46.18-32.05-71.7-44.13-4.14-2-8.51-3.42-12.77-5.12l-.58,1.12C411.16,50.85,447.8,73.31,478.35,104.48ZM271.8,25.13c-29.68,2.46-58,12.64-85.32,27.85,11-2.42,21.34-4.74,31.69-7,5.18-1.12,10.76-1.23,15.54-3.26C246.83,37.18,259.62,30.83,271.8,25.13ZM533,296.07c.44-1.67.77-2.58.91-3.52,1.56-10.68,3.2-21.34,4.62-32a136,136,0,0,0-3.84-55.84c-1-3.42-2.76-6.62-4.16-9.93l-1.34.42C536.19,228.33,530.36,261.86,533,296.07ZM477.32,90.63l-.75,1c29.37,26.52,50.79,58.64,67.12,94.38-1.84-5.46-3.8-10.89-5.81-16.3C527.62,142.06,512,118,489.33,98.91,485.63,95.79,481.34,93.37,477.32,90.63ZM306,46.34c30,10.65,62.91,10.19,91.37,26.2-9.31-7.68-18-15.7-30.83-17.26C346.3,52.8,326.17,49.37,306,46.34ZM243.31,511.77c31.85,10.65,127.21-5.1,150.89-25.74C346.73,511.08,295.42,513,243.31,511.77ZM398.37,37.36l57,35.55C446.81,58.42,421.56,42.56,398.37,37.36Zm-265.16,31c-17.29,8.92-50.92,39.83-61.27,55.8a109.37,109.37,0,0,0-5.12,9.93l1.05.68C85.54,108.56,108.74,87.82,133.21,68.38Zm276,375.8c23.4-13.51,46.06-27.85,63.08-49.39ZM520.35,182l-.73.62,10.74,59.94c.35-17.59-.4-35.1-4.48-52.25C525.16,187.3,522.25,184.79,520.35,182ZM158.22,50.4c-27.15,11.87-51.72,27.45-72.15,49-2.42,2.56-4,5.89-6,8.86C103.09,84.68,128.41,64.54,158.22,50.4ZM39,189.78l1.62.7,22.62-52-1.6-.69A154.07,154.07,0,0,0,39,189.78Zm461.24-52.36c5.68,13.39,11.23,26.85,17.18,40.12,1,2.28,3.76,3.81,5.7,5.69C519.17,165.81,510.71,151,500.19,137.42ZM226.83,30.87l53.91-10.45C260.92,18.44,243,20.43,226.83,30.87Zm-183.39,156c-11.1,18-10,39.39-9.31,59.38C37.17,226.81,40.41,206.13,43.44,186.83Zm23.32-21.24c-9.35,13-17,27.07-16.25,44.43ZM58.63,320.83Q53.83,292.6,49,264.39C47,284.11,53.08,302.43,58.63,320.83Zm472.15-39.92c-3.5,15.73-7.07,31.81-10.37,46.62C531.45,314.49,530.77,297.44,530.78,280.91Zm-14.51,63.23-1.41-1L490.26,383l1.45.89ZM288.94,17.56l-.05,1.09h29.76V17.56ZM49.8,299l-1.55.39,4.17,17.05,1.74-.44Q52,307.5,49.8,299Zm437.92,74.13,1.49,1.07,7.86-14.38-1.41-.79Q491.7,366.08,487.72,373.13Z"/>
    <path id="outer-circle1" d="M0,276.32c1.13-5.83,2.09-11.7,3.43-17.49,4.28-18.49,12-35.62,22.05-51.6a58,58,0,0,0,8.89-22.88c3.57-23.79,13.68-45.42,23.65-67,4.52-9.81,9.27-19.54,14.48-29,2.65-4.83,6.54-9,10.6-13-15,35.73-35.43,69.17-42.68,107.78l1.16.8c2.55-3.42,5.51-6.61,7.57-10.3,5.28-9.44,9.65-19.4,15.33-28.57a308.91,308.91,0,0,1,21.37-30.63c10.7-13.35,22.2-26.09,33.53-38.93,25.18-28.55,56.4-47.4,92.62-59C247.74,5,284.37,3.9,321.25,4.91c16.06.45,31.52,5,46.67,10.28a11,11,0,0,0,5,.82L350.86,2.61l.59-1.33c4.84,1.57,10.15,2.33,14.44,4.85q32.94,19.31,65.39,39.45c13.3,8.3,23.52,20,33,32.38a50.73,50.73,0,0,0,11.29,10.81,95.05,95.05,0,0,1,20.26,19.07A258.45,258.45,0,0,1,540,196.62c5.44,19.51,6.37,40.28,9.09,60.51.93,6.87,1.12,13.83,2.1,20.79,4.44-11.8,7.35-23.94,7.37-36.5s-.82-25-1.28-37.46l1.76-.35a26.65,26.65,0,0,1,1.71,4.95,188.53,188.53,0,0,1-9.11,91.36c-3.42,9.57-3.72,20.2-5.93,30.24-6.14,27.84-16.06,54.5-26.13,81.08-2.83,7.47-5.67,14.93-8.85,22.24-1.42,3.25-3.68,6.14-5.55,9.19l-1.5-.56c.48-1.74.89-3.49,1.44-5.2q14.58-45.35,29.11-90.7c.54-1.7.07-3.72.07-5.6l-1.84-.19c-1.68,5.08-3.45,10.13-5,15.24-7,22.67-20.06,42.33-31.3,62.85a318.48,318.48,0,0,1-24.47,37.59c-13,17.37-31.4,28-50.72,37q-26.67,12.48-53.53,24.55c-28.79,12.93-58.79,15.73-89.92,11.2-20.69-3-41.55-5-62.39-6.84-30.9-2.73-71-17.82-92.06-35.32,9.85,4.46,19.58,8.91,29.36,13.26,21.09,9.37,43.41,13.12,66.2,16,29.63,3.75,59.19,3.21,88.78,1.58a236.82,236.82,0,0,0,72.06-15.26c10.18-3.91,19.34-11.05,28.19-17.75,14.06-10.64,27.47-22.15,41.17-33.26a22.06,22.06,0,0,1,2.87-1.69l-1.14-1.21c-5.56,4.37-11.05,8.85-16.71,13.1-29.26,22-61.89,35.55-98.56,38.64-10.29.87-20.64,1-30.95,1.59-25.92,1.58-50.56-5-75.27-11.36-7.67-2-15.38-3.83-23.07-5.74l-.64,1.69c5,2.25,9.89,5.29,15.17,6.62,22.44,5.63,45,10.74,67.52,16.08a27.74,27.74,0,0,1,3.54,1.36l-.11,1.46c-6.15,0-12.3,0-18.45,0-1.83,0-3.72-.57-5.46-.25-17.64,3.23-34.24-.63-50-8a188.12,188.12,0,0,0-35.69-12.34c-34-8.37-62-27.25-87.63-50.67-34.42-31.45-56.68-69.71-67.69-114.68-5.76-23.56-4.61-47.61-3-71.49,1-14,3.71-27.79,5.72-42.12C7.88,245.73,2.48,282.11,7.36,320.64l-1.65,0q-2.26-15.3-4.55-30.59c-.34-2.27-.77-4.52-1.16-6.78Zm383.31-215,1.26-.66c-9.4-9.45-14-11.83-23.73-13.48-5.7-1-11.59-1.89-16.87-4.1-13.53-5.65-27.61-8.18-42.06-10.14-19.79-2.7-39.15-3-58.18,4-7.82,2.85-15.9,5-23.64,8.06-29.66,11.57-57.77,25.76-80.79,48.46-4.61,4.54-9.85,8.46-14.92,12.51-23,18.32-40.82,40.37-49.76,68.81-2.79,8.88-5.85,17.69-8.14,26.7-4.86,19.14-10.48,38.15-9.16,58.32,1.71,25.95,8.75,50.61,16.27,75.34,13.59,44.69,37.42,81.32,78.6,105.33,3.58,2.09,6.76,4.87,10.13,7.33-17.45-5.87-32.4-15.62-45.34-28.29-25.21-24.67-39.93-55.38-49.93-88.58-4.34-14.43-7.77-29.13-11.87-44.66.23,17.32,2.1,33.32,7.64,48.88,10.75,30.19,24.31,58.71,47,82,17.93,18.36,39.13,32.45,60.39,46.55,13.83,9.18,28.46,15.79,44.77,18.8a142.83,142.83,0,0,1,15.51,3.86c32.92,10,66.46,13.59,100.72,9.74,8.09-.92,16.37-1.17,24.22-3.09,30.07-7.34,57.73-19.44,82.1-39.3a222.31,222.31,0,0,0,48.69-55.65c17.81-28.67,26.62-60.77,33.61-93.39,1.45-6.77,1.51-13.84,2.21-20.77l-1.61-.2c-.47,2.22-.8,4.48-1.43,6.64-4.11,14-8,28.1-12.54,42-3.25,9.95-7.58,19.53-11.08,29.39-3.93,11.07-9,21.42-16.54,30.54a70.05,70.05,0,0,0-8.95,13.18c-8.77,17.45-22.22,31.06-35.93,44.42-12.05,11.75-27.59,17-43.47,20-28.76,5.44-57.77,9.64-86.71,14.13-7.23,1.12-14.59,1.38-21.89,2a6.17,6.17,0,0,1,4-2.31q16.47-3,32.95-5.91c24.08-4.31,48.24-8.25,72.22-13.06,20.13-4,37.13-13.54,50.79-29.53,8.58-10,17.2-19.8,23.47-31.48A57.67,57.67,0,0,1,472.62,393c9.74-11.14,15.84-24.1,20.16-38.07a115.52,115.52,0,0,1,5-13.05,251.46,251.46,0,0,0,18.69-62.4c1.43-8.49,3.81-16.57,2.81-25.75C515.31,218,504,185.32,482.36,156.5c-9.09-12.09-19.15-23.47-27.76-35.87-9-12.93-20.48-23.1-32.33-33.07-.23-.19-.64-.16-.83-.21,6.23,8.59,12.41,17.08,18.58,25.57L438.57,114c-3.75-4-7.6-7.86-11.22-12C415,88,401.89,74.87,385.18,65.84,384.07,65.24,383.91,62.9,383.31,61.36ZM258,22.26c0,.58-.06,1.16-.1,1.75,2-.29,3.94-.66,5.93-.84,15.23-1.35,30.46-3.63,45.71-3.76,23.23-.2,43.23,9.43,61.47,23.22a44.76,44.76,0,0,0,10.07,5.23c5.23,2.15,10.69,3.73,15.93,5.87,38.5,15.79,69.8,39.76,88.64,77.89,3.24,6.55,6.76,13,10.17,19.44.75,1.42,1.57,2.8,2.36,4.2a232.87,232.87,0,0,0-28-57.18c-19.4-29.23-43.07-53.59-76.58-66.85-22.64-9-45.2-18.52-69.78-20-42.55-2.6-84.61.17-124.89,15.84-8.6,3.35-16.89,7.5-25.33,11.28l.55,1.32c2.47-.85,5-1.6,7.41-2.56,10.84-4.27,21.64-8.63,32.48-12.88A76.75,76.75,0,0,1,250.35,19C253,19.23,255.48,21.12,258,22.26ZM537.46,312.87l1.37.48c1.42-4.81,3.81-9.57,4.06-14.44.56-10.92.92-22-.19-32.81-2.28-22.28-3.44-45-9-66.54-7.8-30.52-22.2-58.67-40.29-84.69-2.84-4.1-6.27-7.78-10.23-12.64C521,168.42,536.09,238.89,537.46,312.87Zm-508-5.7c5.06,71.52,70.77,154,148.79,176C105.48,443.48,53.2,386.72,29.47,307.17ZM247.28,31.24C231,32.88,215,35.67,200.12,43c-2.16,1.07-5.8,2.75-6.83,1.87-3.69-3.11-6.44-.46-9.43.52-6.17,2-12.47,3.78-18.36,6.46-7.67,3.48-16,6.58-22.27,11.9-18,15.22-31.72,34-42,55.24-.13.28.14.75.14.75,12.12-10.39,24.74-20.27,36.25-31.3,20.1-19.26,43.92-32.29,69.27-42.8C220.09,40.21,233.8,36,247.28,31.24Zm-209.73,209-1.61-.3a13.16,13.16,0,0,1-.55-3.55c2.79-22.74,8-44.55,24.3-62.05,1.49-1.61,2.19-4,3.26-6l-1.61-1.08c-3.61,4-8.37,7.53-10.6,12.21C45,191.67,38.86,203.94,35.55,216.83c-10.27,40-7.45,79.44,7.86,117.88,1.66,4.17,3.51,8.27,5.44,12.32S52.93,355,55,359c-23.53-56.39-16.42-112.67,0-169.66q-8.84,10.83-11.75,26.36c-1.18,6.21-2.06,12.47-3.3,18.66C39.48,236.39,38.35,238.3,37.55,240.28ZM499,172.74c-6.26-12-13.39-25.12-19.95-38.49-14-28.57-35.73-49.82-62.84-65.79-8.65-5.09-18-8.93-27.07-13.34l-1.32,2c10.32,7.93,20.6,15.89,31,23.77,3.56,2.71,7.49,5,10.91,7.84,11.64,9.77,22.08,20.64,30.59,33.35,4,5.92,8.81,11.24,13.15,16.91C482.24,150.56,491,162.15,499,172.74ZM525.6,265c0,9.74.86,20.42-.25,30.9s-3.83,20.89-6.43,31.18c-9.53,37.83-24,73.27-50.83,102.6-2.13,2.32-3.94,4.94-6,7.36s-4.05,4.63-6.08,6.94c19.74-16.54,37.63-34.68,48-58.58,6.81-15.68,12.5-31.85,18.48-47.89a76.92,76.92,0,0,0,3.35-13C529.6,304.35,527.28,284.24,525.6,265ZM333.37,31.49c-19.06-4.52-37.83-10-58.69-4.81,7.44.71,13.89,1.24,20.31,1.93,18.57,2,37.09,3.85,53.75,13.75,3.56,2.11,8.67,1.62,13.07,2.33.12-.55.23-1.11.35-1.66-13.62-9.68-28.31-16.74-45.49-17.7Zm88,453.06c23.23-10.15,42.24-25.11,55-47.44ZM55.32,169.12l1.28,1c3.15-3.29,7.16-6.1,9.3-10,8.28-14.93,16-30.19,23.85-45.35.08-.14-.23-.48-.43-.86C74.05,130,64.28,149.31,55.32,169.12ZM247.06,25.85l-.24-1.4-22.7,3.88.23,1.33Z"/>
  </g>
</svg>
