<svg id="Calque_2" data-name="Calque 2" xmlns="http://www.w3.org/2000/svg" viewBox="0 0 761.86 770.34">
  <title>Sans titre - 1</title>
  <g>
    <path d="M511.91,623.91c-20.37,4.86-40.6,10.44-61.14,14.38-21.13,4-42.6,5.73-64.15,2.91a3.54,3.54,0,0,1-2.59-1.45l15.6-3.1,0-.87H346.33l-.15-1.5,8.64-1.24c-37.28-8.45-74.23-17.48-108.66-35.12,4.27,3.14,8.47,6.38,12.84,9.39s8.78,5.7,13.18,8.53l-.63,1.36a26.47,26.47,0,0,1-5-1.89c-5.8-3.6-11.91-6.87-17.12-11.21-26.62-22.16-53.43-44.17-74.67-71.94-1-1.29-1.9-2.63-2.84-3.95l1.08-1.05c4.12,4.23,8.19,8.52,12.39,12.69s8.74,8.44,12,11.55a343.89,343.89,0,0,1-59.81-142.57v11.46h-.5v-30l-1.93,1.7c1.24-14.13,2.53-28.7,3.82-43.27l-.8-.2q-2.7,9.91-5.38,19.83l-1.54-.4c2-7.84,3.8-15.74,6.09-23.49,3.35-11.34,8.48-22.34,10.33-33.89,3.3-20.61,14.28-37.44,24.23-54.79,10.19-17.78,21.42-35,36.29-49.39,1-.93,1.83-1.93,2.7-2.94.15-.18,0-.56.11-1.82-5.37,5.15-10.82,9.34-15,14.55-15.52,19.33-31.62,38.32-45.6,58.74-12.25,17.88-21.3,38-23.72,59.87-2.24,20.31-4.74,40.94-3.49,61.21,2.09,33.92,11.6,66.4,26.54,97.1,8,16.45,14.94,33.58,24.46,49.11,14.87,24.26,36.11,42.39,60.58,57,21.57,12.86,44.21,22.56,68,30.71,16.78,5.73,33.51,9,50.72,11.37a26.39,26.39,0,0,1,3.54,1l-.07,1.32c-2.22,0-4.44,0-6.66,0-35.55-.71-67.94-12.32-98.56-29.33-13.51-7.51-26.27-16.37-39.37-24.62a3.53,3.53,0,0,0-3-.68l25.47,24.88-.88,1.23c-2.85-1.7-6.12-3-8.49-5.18-11.26-10.58-23.22-20.61-33.14-32.36-15.45-18.31-30.22-37.3-43.81-57-9.67-14-17.27-29.58-25-44.82-2.38-4.68-2.43-10.59-3.23-16-.23-1.52.66-3.21,1-4.83l1.54,0c.36,1.58.73,3.15,1.07,4.73,1,4.83,1,10.24,3.25,14.4,8.26,15.18,17.28,30,26,44.87a4,4,0,0,0,2.42,1.86c-1.86-3.81-3.82-7.58-5.57-11.44-12-26.57-23.8-53.26-29.66-82-7.12-35-7.25-70.34,2.33-104.53,8.66-30.91,21.6-60.51,43.57-85.12,4.62-5.16,7.8-11.58,11.81-17.31A145.62,145.62,0,0,1,214,184.51c9.12-6.42,18.11-13,27-19.81-20.06,9.15-37.37,22.6-54.71,36l-1-1.13c1.67-1.8,3.21-3.75,5-5.38,29.09-26,62.34-44.68,100-54.35,28.19-7.23,56.82-13,85.47-18.14,18.39-3.33,36.86.18,55.08,3.61a7.55,7.55,0,0,0,3.41.06c-53.32-12.59-106.67-14.76-160,1.17l-.29-2.23c10.12-2.51,20.19-5.21,30.35-7.49,34.7-7.76,69.29-3.66,103.87,1.17,27.09,3.78,52.65,12.13,77.88,22.81A342.13,342.13,0,0,1,557.69,182c18.62,13.9,37.12,27.92,51.31,47,29.86,40.19,52.67,83.38,59.19,133.67,1.83,14.13,1.35,28.55,1.91,42.84.06,1.46,0,2.93,0,4.05,5.32-.66,4.66-5,5.15-8.57,4.93-36.88-.07-72.44-14.51-106.67C654,278.45,647,262.64,640,246.83c-1.39-3.14-3.35-6-5.05-9l1.38-1.34c1.6,1.53,3.76,2.77,4.7,4.62,5.24,10.4,10.85,20.69,15.09,31.5,7.83,20,15.95,39.9,20.33,61.08,4,19.43,4.63,38.92,3.18,58.66-1.11,15.18-1.17,30.43-1.7,45.65l1.83.28c1.27-4.26,2.56-8.51,3.81-12.77s2.48-8.61,3.94-13.7c-1.37,35.3-40.41,118.8-64.91,138.27l7.2-11.36c-21.55,23.25-44.07,45.21-70.36,63.05l.94,1.32,37.5-23.65.65.67a43.46,43.46,0,0,1-4.28,4.2c-18.07,13.61-38,24-58.51,33.3-16.33,7.43-32.94,14.22-49.21,21.2,4.51-.54,9.51-.88,14.41-1.81,11.28-2.13,22.56-4.35,33.76-6.88,27.05-6.13,48.14-22.17,66.88-41.55,20.83-21.53,37.88-46,53.36-71.56,5-8.2,11.42-15.53,16-23.93,5.29-9.77,9.23-20.26,13.75-30.44.76-1.71,1.5-3.43,2.25-5.15l1.37.47c-.35,1.82-.58,3.67-1,5.47-4.67,18-14.33,33.63-24.31,49-6.6,10.2-13.68,20.1-20.49,30.16a361.57,361.57,0,0,1-45.62,55.23c-4.22,4.17-9,7.78-13,12.53l27.4-16.11c-15.91,10.47-26,26.75-39.8,39.32-35.78,32.65-77.5,52.05-125.78,56.34-16,1.43-32.22.76-48.35,1a6.72,6.72,0,0,1-4.12-1.54c36.55,1.19,72.32-1.35,106.69-15.41,34.21-14,64.23-33.44,89.05-63.15-11,5.54-21.18,9.6-30.21,15.47a219.14,219.14,0,0,1-101.21,35.24c-39.64,3.66-78.1-2.64-116.71-9-25.47-4.2-50.9-9-74.67-19.7-7.7-3.49-15.2-7.41-22.79-11.13l.63-1.38,24.8,11.81.38-.64c-.63-.67-1.25-1.35-2.43-2.63,21.73,8.07,42.6,16.8,65.09,19.28,22.15,2.44,44.43,3.8,66.76,4.73H360.81c23.78,4.25,47.47,9.56,71.7,8.24a519.49,519.49,0,0,0,54.11-5.66c22.5-3.61,42.48-14.33,62.29-25.06a20.38,20.38,0,0,0,2.62-2.11c-41.84,10.65-84,15.7-126,21.73l-.31-1.57c10.32-2.18,20.58-4.71,31-6.47,18.7-3.17,36.28-9.77,53.78-16.7a9.07,9.07,0,0,0,1.87-1.39c8.76-3.83,17.8-7.12,26.2-11.62,23.55-12.61,43.5-30,62.21-48.81,8.16-8.22,15.86-16.9,23.76-25.37,2.16-2,4.26-4.09,6.51-6a13.38,13.38,0,0,1,3.25-1.7c.91-.41,2.29-.41,2.74-1.08,12.13-18.08,24.27-36.19,31.86-56.8,1.18-3.22,1-7,1.39-10.46l-1.42-.21c-8.26,24-21.53,45.17-36.48,65.41-2.64,3.58-5.34,7.12-8,10.67-7.05,6.78-13.85,13.85-21.2,20.28-25.66,22.43-53.21,42.12-83.76,57.07a17.11,17.11,0,0,1-3.07,5.85C514.8,622.25,513.23,623,511.91,623.91ZM441.26,593c1.87.17,3.95,1,5.56.41,14.76-5.11,29.63-10,44.07-15.91,8.88-3.64,17.22-8.7,25.53-13.6a277.31,277.31,0,0,0,23.93-15.53,134.56,134.56,0,0,0,16.85-15.09c5.14-5.34,9.56-11.39,14.29-17.13l-1.26-1.13-3.41,1.8c-10.72,5.63-18.28,14.9-26.31,23.49-12.15,13-19,17.52-36.08,22.54-2.91.85-5.64,2.9-8,4.94A89.37,89.37,0,0,1,468,584.09c-8.89,3.23-17.9,6.12-26.86,9.16a7.16,7.16,0,0,0-2.56-.67c-5.59.73-11.14,1.74-16.74,2.4-9.69,1.15-19.41,2.12-29.11,3.16a9.41,9.41,0,0,0,5.36,1.46c12.54-1.12,25.07-2.31,37.58-3.75C437.61,595.63,439.4,594,441.26,593ZM171.9,478.9c2.1,5.24,5.11,10.31,6.1,15.75,1.87,10.28,7.83,17.33,15.05,23.69,0,1.82.07,3.79,1.11,4.83,7.88,7.9,15.51,16.13,24.07,23.23,7.93,6.57,16.91,11.88,25.42,17.75l.72-1.07c-3.28-2.24-6.78-4.22-9.79-6.76-6.85-5.77-14.09-11.26-20.07-17.85-27.88-30.71-41.81-67.66-46.7-108.31-1-7.89-.34-16-.4-24-.07-8.8-1.28-17.81.14-26.37,2.9-17.55,6.92-34.93,11-52.25,3.28-13.73,7.25-27.31,11.21-40.88,1.58-5.41,4-10.58,6-15.86a21.56,21.56,0,0,0-5.87,6.3c-14.35,23.93-25.52,49.22-27.72,77.31-1.73,22.2-1.74,44.55-2.15,66.84-.1,5.25,1.16,10.55,1.95,15.79.91,6,2,12,3,18q-2.25-6.4-4.49-12.79l-1.15.41c.86,4,1.51,8.15,2.62,12.13,2.19,7.84,4.58,15.63,7.05,23.39.31,1,1.56,1.7,2.37,2.54C171.59,480.13,171.75,479.52,171.9,478.9ZM291.63,208.17l12.74-6v-5l-22.24,12.9.42.89,9.24-2.93c-2.8,1.43-5.5,3.07-8.4,4.25-14.34,5.86-26.49,14.61-35.85,27-12,16-23.84,32.07-36,47.91-7.42,9.66-11.46,20.56-13.44,32.38-1.18,7.05-2.19,14.14-3.25,21.21-.87,5.78-1.7,11.56-2.54,17.33l-1.63-.14V341.64l-1-.09-7.44,23-.38-.16q5.63-21.3,11.26-42.59l-1.66-.41a156.36,156.36,0,0,0-15.8,76.57,124.37,124.37,0,0,0,11.23,44.83c7.82,17.43,15.52,34.94,24.12,52,5.48,10.88,14.85,18.78,24.31,26.33a34.67,34.67,0,0,0-4-6.17c-10.87-14.15-20.83-28.93-28.24-45.19-2.86-6.26-4.28-13.21-6.12-19.9-1.66-6.05-2.52-12.35-4.61-18.23-2.3-6.47-4.19-13.07-1.69-19.47,3-7.75,1.2-14.9.07-22.49-.72-4.85-.64-10.73,1.51-14.9,5.26-10.23,8.22-21,10.92-32,2.81-11.51,6.78-22.67,16.36-30.79,1.51-1.29,3-3.7,3-5.54-.39-13.35,5.26-23.7,15.09-32.17a3,3,0,0,0,.28-.41c12-14.44,19.91-31.67,32-46.05a4.12,4.12,0,0,0,.78-1.28c2.51-7.82,8.67-10.57,16.08-11.23,8.55-.77,14.36-6,19.92-12Zm89.09,354.6v.6c4.33,0,8.66,0,13,0a165.45,165.45,0,0,0,80.33-19c21.38-11.23,41.71-24.29,59.49-40.91,7.51-7,13.46-14.84,16.51-25,4.2-14,9.13-27.83,14.09-41.61A116.5,116.5,0,0,0,571.22,392c-1.19-32.13-9.39-62-22.59-90.93a110.7,110.7,0,0,0-7-12.66c-13.66-21.77-32.24-39-52.53-54.16-16.79-12.53-35.93-21.31-56.83-24.33-21.26-3.06-42.74-3.61-64.3-2.74-40.15,1.6-72.89,18.49-99.32,47.74-10.43,11.53-18.8,25-27.72,37.81a222.52,222.52,0,0,0-32.48,70.9c-4.7,17.8-7.61,35.8-5,54.31,3.4,24.11,13.38,45.89,24,67.4,2,4,5.65,7.25,8.84,10.56,5.76,6,12.81,11,17.41,17.72A57.62,57.62,0,0,0,287,537.53a105,105,0,0,1,11.37,3.75c10.94,4.42,22.19,8.31,32.58,13.8,8.59,4.53,17,7.9,26.81,7.72C365.39,562.66,373.06,562.77,380.72,562.77Zm19.92-427.53c-1.48-.3-2.61-.63-3.75-.74-4.31-.42-8.62-.86-12.94-1.13-27.91-1.71-55.48-.17-81.13,12.13-16.46,7.89-32.29,17.12-48.28,26-21.71,12-39.59,28.69-55.68,47.32-5.14,6-9.45,12.63-14.14,19l1,.75c4.27-5,8.2-10.26,12.87-14.8C230.06,193,265.27,168.11,307.43,154c7.89-2.63,15.59-5.81,23.48-8.46,1.35-.46,3.18.51,4.78.82-1,1.08-1.86,2.61-3.12,3.18-3.79,1.69-7.73,3-11.64,4.47-8.71,3.17-17.62,5.85-26.11,9.51-34.15,14.72-65,34.73-91.19,61.09-11.39,11.47-22.13,24.37-30,38.41-10.41,18.66-17.67,39.06-26.29,58.72-4.62,10.52-8.8,36.54-8.1,41.14,5.95-15.71,11.61-34.27,19.89-51.57,9.17-19.18,17.12-39.24,32.76-54.88,9.27-9.25,16.62-20.4,25.48-30.1,10.08-11,19.85-22.73,31.58-31.79,29.55-22.82,64-35.82,99.65-45.83,12.88-3.62,26.92-2.27,38.95-9.72C391.11,136.85,395.82,136.57,400.64,135.24Zm187.75,257.9,2.46-.29c.3-10.6,2.3-21.5.49-31.73-2.94-16.65-7.91-33-12.94-49.19-2.64-8.5-7.74-16.21-10.81-24.61-4.63-12.67-8.66-25.52-17.29-36.27-.7-.88-.39-2.57-.55-3.89l1.42-.45c2.75,3.84,6.24,7.36,8.11,11.59,7.84,17.67,15.19,35.57,22.72,53.38.06.15.07.33.12.48l11.43,33.61c1.65-6.09.57-20.19-1-24.08-2-5-4.39-10.27-4.61-15.51-.69-15.8-7.91-27.46-20.26-36.62-1.59-1.18-2.53-3.37-3.5-5.23-2.34-4.51-4.06-9.41-6.9-13.57-2.34-3.44-6.15-5.83-8.9-9-7.23-8.44-13.6-17.7-21.48-25.45-9.45-9.29-19.52-18-32.78-22.19a435.22,435.22,0,0,0-75.86-17c-3.79-.49-7.63-.69-11.46-.84-3.66-.15-7.33-.2-11,0s-7.28.61-10.92.94a12.46,12.46,0,0,0,4.88,1.58c35.54,5.4,71.18,10.44,103,29.08a49.17,49.17,0,0,0,5.07,2.11c12.33,5.5,23.25,12.9,32,23.37,3.94,4.72,8.16,9.21,12.33,13.73,5.13,5.57,9.27,11.58,11.55,19,2.14,6.95,4.43,14.11,8.16,20.26a122.39,122.39,0,0,1,17.71,52c.69,7,.94,13.75,5,20,1.5,2.33,1.56,5.72,1.83,8.67C587.17,375.66,587.73,384.4,588.39,393.14Zm9.92,158.43c38.9-30,74.88-98.32,71-133.48-2.28,12.79-4.51,25.43-11.1,36.79,2.39-24.36,8.12-48.29,6.65-73-1.36-23-10.42-63.53-16.87-71.17.2,2.45.28,4.61.57,6.74,1.78,12.69,4,25.33,5.36,38.06,2.62,23.75,2.22,47.54.38,71.35A189.09,189.09,0,0,1,621,521.32C613.81,531.68,605.88,541.5,598.31,551.57ZM323.54,584.5c-.2.57-.4,1.13-.61,1.7a28.23,28.23,0,0,1-2.91,0,37.78,37.78,0,0,1-5.43-.78,201.44,201.44,0,0,1-56.16-24.3c-20.6-12.94-35.9-31.78-50.25-51C191,487.2,181.7,460.3,173.05,433.28c-1.25-3.89-2.3-7.84-3.45-11.77l-1.68.44c3.42,14.19,6.34,28.52,10.35,42.54,13.86,48.49,42.32,85.09,88.55,106.86,31.74,14.94,65.62,20.62,100.27,22.52,6.79.37,13.67-1,20.51-1.54,0-.52,0-1,0-1.56-30.14-1.09-59.48-5.73-86.93-19Zm79.62,7.75-.16.88c10.56-1.38,21.08-3.41,31.68-4s19.15-7.17,29.48-8.81c7-1.1,13.47-5.46,20-8.64,8.41-4.07,16.48-8.9,25.06-12.54a85.4,85.4,0,0,0,33.85-25.66c3.39-4.23,6.78-8.47,10.35-12.55,7.14-8.14,14.4-16.17,21.61-24.25l-1.41-1.26c-5.71,6-11.47,11.92-17.12,18-13,13.92-27.54,25.5-46,31.62-5.94,2-12.09,4.57-16.89,8.45-8.12,6.55-17.75,8.79-27.07,12.24-9.5,3.5-18.78,7.61-28.08,11.62-9.79,4.22-17.83,12.24-29.11,13.27A39,39,0,0,0,403.16,592.25Zm-4.52,33.61,0-1.58,39.07-4.15-.15-1.27c-1.78.21-3.56.4-5.33.64-22.55,3-45.1,3.84-67.3-2-15.25-4.05-30.78-7.81-45.21-14-10-4.28-20.28-5.7-30.44-8.44-16.12-4.36-31.95-9.81-47.62-14.71,6.39,8.43,10.31,11,20.34,14.59,13.31,4.71,26.51,9.73,39.76,14.59a21,21,0,0,0,3.3.93q13.41,2.55,26.85,5l-.36,1.82L313.4,614l-.33,1.59,22.09,5a3,3,0,0,0,1.9,2.5c8.66,1.66,17.3,3.49,26,4.64,15.05,2,30.14,2.66,45.14-1.17Zm126-31.53c12.47-2.8,29.83-11.86,38.65-20.06,6.7-6.23,13.17-12.73,19.89-18.95,22.44-20.74,37.33-45.85,43.74-75.79,2.29-10.69,4.07-21.49,5.91-32.28.62-3.66.7-7.43,1-11.14-5.93,25.66-21.46,47-31,71,5.5-7.34,10.27-15.1,15.21-22.75.88-1.37,2.47-2.28,3.74-3.4.34,1.77,1.41,3.81.89,5.27-1.55,4.36-3.15,8.9-5.77,12.64-9.58,13.62-18.77,27.63-29.59,40.21C569,560.28,549.16,580,524.65,594.33ZM493.93,182.56a10.5,10.5,0,0,0-.7-1.58c-30.46-25.29-67.58-31.11-105.06-35.45-6.95-.8-14.27.79-21.34,1.82-28.65,4.15-55,15.38-81.23,26.89a31.53,31.53,0,0,0-3.47,2.08c9.43-2.35,18.86-4.74,27.51-8.78,25.6-11.95,52.7-15.29,80.38-14.31,26,.91,50.9,7.86,75,17.51C474.41,174.5,483.73,178.38,493.93,182.56Zm-212.48,8.11c6.16-3.5,12.24-7.16,18.53-10.42,1.57-.81,3.8-.36,5.72-.49-.93,1.72-1.43,4.14-2.87,5.05-7.59,4.79-15.68,8.82-23.09,13.85-7.2,4.89-13.79,10.68-20.65,16.07,13.88-7.26,27-15.36,40.45-23,14.95-8.54,30.62-14.69,48.13-16.57,19.6-2.09,38.65-8.84,58.74-7.07,7.42.65,14.84,1.2,22.26,1.8a130.88,130.88,0,0,0-25-3.79c-10.76-.38-21.56.19-32.34.49-14.25.39-28.53.43-42.73,1.52C310.21,169.51,295.47,179.52,281.45,190.67Zm-4.9,391.22-.51,1.27c-7.79-3.61-15.74-6.94-23.34-10.92a233.94,233.94,0,0,1-22.31-13.12,226.63,226.63,0,0,1-21-16.08c-6.56-5.63-11.64-13.62-19-17.48-8.41-4.41-10.56-12.64-16.7-19.87,5.58,15.2,15.74,25.68,25.6,35.85a188.44,188.44,0,0,0,33.56,27.82c12.08,7.69,25.74,13,39.06,18.58,11.07,4.6,37.7,8.46,43.71,6.69L271.26,578l-.26.67ZM154.36,462.56c-6.88-26.46-7.22-53.3-5.16-80.32s8-53.14,16.61-78.74c-14.43,25-24.15,51.9-26.27,80.46C137.54,411,144.19,437.33,154.36,462.56ZM476.6,622.74l-.57-1.51c23-7.49,46.67-13.48,64.08-28.07L418.22,630.88c23.21-1.31,48.18.81,71.21-10.88ZM598.88,271.25a70.32,70.32,0,0,0-16.76-35.39c-15.37-17.68-32.87-33-51.42-47.25-28.9-22.19-60.19-39.28-96.43-46.06a96.36,96.36,0,0,0-35.23-.11c4.82.51,9.66.52,14.44,1,27.44,3,53.11,12.07,78.32,22.76,35.29,14.95,58.94,44,85,70.15,4.94,5,8,11.81,11.78,17.86C592.1,259.86,595.46,265.58,598.88,271.25ZM181.39,322.43l1.18.39q1.13-2.18,2.26-4.33c9.12-17.36,17.59-35.11,27.54-52,12.52-21.25,27.92-40.48,44.9-58.48a36.92,36.92,0,0,0-5.72,4.44c-9.85,9.45-19.48,19.14-29.52,28.39-13.69,12.6-25.05,26.72-30.44,44.85C188,297.87,184.77,310.18,181.39,322.43Zm465,27.94c-7.46-2.81-5.48-10.05-9-13.44.88,7.17,1.73,14.26,2.63,21.35,3.51,27.69-3.15,55.06-2.68,82.66a62,62,0,0,1-1.1,10.4c-1.24,8-2.61,16-3.93,24C644.68,434.14,653.57,392.53,646.4,350.37ZM567.64,547.78c13.3-8.18,35.35-39.62,37-51.16-6.53,6.83-12.68,14.95-20.42,21C563,534.36,548.78,557.15,531.08,577a180.12,180.12,0,0,0,16.76-11.38,126.31,126.31,0,0,0,15.4-14.09c4.38-4.88,7.77-10.64,11.59-16l.83.62Q571.64,542,567.64,547.78ZM417.37,602.39l-.15,1.37,28.27-1.38c.82-.38.38-.23,0,0a13.93,13.93,0,0,0-1.24.94l.9,1.55c30.61-6,58.14-18.07,80.13-41.35C491.81,583.52,456.28,597.65,417.37,602.39ZM598.05,427.51c2.77-11.83,5.71-22.69,7.75-33.73,1.29-7,2.79-14.49,1.43-21.2-2.07-10.27-4.43-20.38-4.73-30.92-.08-2.72-1.61-5.39-2.47-8.09l-2,.33Zm24.06-168.75q2,6.53,4.06,13.05l-1.67.76c-9-20-21.48-37.63-36-53.91l48,89.25C633.69,291.57,631,274.28,622.11,258.76Zm-69.24-38.31,1.9-2.42-24.38-22.77h0l2.34.1c-19.2-16.35-39.8-28-62.92-35.14C499.07,178.09,527.53,197.06,552.87,220.45ZM545,513.73l1.56.92c29.26-25.81,51.36-79.53,46.5-113.93-.48,1.89-.88,3.14-1.11,4.42-1.83,10.48-3.26,21.05-5.52,31.43a140.15,140.15,0,0,1-31,61.85C551.43,503.09,548.44,508.61,545,513.73Zm-367.1-286.9C206,193.16,243,171.23,279.71,149,239.21,166.29,203.26,189.59,177.89,226.83Zm373.79-37.89c.21-.71.41-1.42.61-2.14-24.21-24.21-53.74-39.29-85.81-49.94a4.88,4.88,0,0,0,2.6,2.11c9.15,4.38,18.53,8.35,27.36,13.3,5.72,3.21,10.55,8,16,11.81q16.5,11.65,33.26,23C547.33,188.19,549.66,188.34,551.68,188.94ZM289.54,178.18c-24.09,4.73-67.23,38.47-73.09,57.2C228.24,224.79,239,214,251,204.68S276.16,187.27,289.54,178.18ZM601.19,296.81c9.29,25,14.88,50.88,18,77.35C624.12,345.8,617.13,320.25,601.19,296.81ZM493.52,154.28c-36.22-18.53-74.29-29.11-115.31-27C418.27,129.3,456.43,139.48,493.52,154.28ZM651.58,363.91c0,.38.07-.28,0-.92-2.65-20.78-4.87-41.63-8.25-62.29-1.07-6.56-5.26-12.61-8-18.89l-1.59.58ZM332.29,164.41l79.14-3.18-.06-1.33C384.72,155.88,358.34,157,332.29,164.41ZM592.85,472.26c16.74-21.58,24-46,25.22-70.26ZM615.54,523c23.77-35.66,36.4-74.73,36.05-117.79C649.54,447.5,635.42,486.12,615.54,523ZM476.48,208.76c7.54,7.54,13.92,14.13,22.7,17.9,10.2,4.38,20.76,8.29,27.6,17.93.62.88,2,1.24,3.37,2.09C518,226,497.94,217.65,476.48,208.76ZM342.06,606.07c20.34,7.39,54.16,11.83,70.27,6.36h-15.8l16-1.67-.13.7ZM506,238.35c13.13,14.68,26.27,29.36,38.93,43.49C539.55,261.29,523.34,249.34,506,238.35Zm97.95,86.82c-.25-2.06-.28-2.72-.41-3.36-1.92-8.9-3.48-17.9-5.86-26.68a67,67,0,0,0-17.37-30.66,95.22,95.22,0,0,0,6.24,14.25c1.77,3.44,4.31,6.63,5.33,10.26a89,89,0,0,1,2.77,16.64C595.21,313,598.72,318.69,603.91,325.17ZM362.18,195.68l59.57,1.79c-11.39-2.21-25.4-4.79-39.35-7.68C373.36,187.92,367.09,195.23,362.18,195.68ZM610.31,389.19c-1.67,7.7-3.39,15.8-5.19,23.89-1.75,7.82-6.33,15.1-4.49,23.59C608.82,421.7,616.24,406.59,610.31,389.19ZM319.4,595.34c-.1.34-.19.67-.28,1,11,1.84,22,4.59,33.07,5.27,11.52.71,23.17-.57,34.76-1l-.05-1.52Zm-72.73-5.11a135.59,135.59,0,0,0-37.37-32C217,570.47,231,582.42,246.67,590.23ZM631.55,328.56c-3.4-18.83-16.72-52.22-23-57.33q3.46,14,6.92,28l1.41-.21.81-4,1.15-.18Zm-33.32-82.73.93-.5c-3-5.61-5.82-11.3-9-16.81-4.59-8-7.61-17.12-15.73-22.68a2.19,2.19,0,0,1-.86-1.16c-1.11-4.84-3.3-6.74-7.08-7C576.84,213.38,587.54,229.6,598.23,245.83ZM579,490.46c7.71-11.93,14.47-24,16.78-38.11-4.13,5.83-8.1,11.81-10.7,18.33C582.53,477,575.33,481.76,579,490.46Zm37.27-117.19c1.82-9.24-5.11-44.95-10-53.6,1.48,10.17,3,20.2,4.41,30.22.93,6.4,1.73,12.81,2.82,19.18C613.7,370.32,615,371.39,616.23,373.27ZM333.13,189.61c12.25.45,24.6,1.26,36.27-6.2A56.6,56.6,0,0,0,333.13,189.61ZM513.85,578.77c8-1.56,27.79-20,31.2-28.54C531.05,555.8,525.75,570.84,513.85,578.77Zm92.77-285.93,1.72-.77c-11.74-20.32-23.1-40.87-37.74-59.41ZM302.48,614.69l1-2.37-43.35-16c-.27.73-.54,1.46-.82,2.19Zm-61.26-84.16c10,13.9,23.51,23.31,38.49,30Zm322.69-14.1c14-6,17.81-18.72,23.89-29.6Zm-269,29.75c-.2.51-.4,1-.61,1.52,9.87,5.28,19.56,11,31.09,12.07.16-.39.32-.79.47-1.18ZM443.77,201.43l24.82,10.8C461.64,203.39,454.4,198.31,443.77,201.43ZM628.3,436.17c3.84-12.45,7.59-25.24,5.22-39C631.77,410.28,630,423.22,628.3,436.17Zm-247,168.56,0,1.73h46.25v-.2Zm251.19-301-1.4.45L644,344.59l1.38-.44ZM599.79,479.47A78.9,78.9,0,0,0,616,445.24ZM152.43,298.78l1.43.55,16.22-32.55-1.7-.82Zm291.81-130c-9.9-4.45-26.52-6.81-34.34-5Zm-80,407.77.3-2-27.45-4.07-.33,2.18Zm70.91-8.41c-9.85-1.14-16.76,4.68-23.85,10Zm120.9-375.38L573,211.92C565.72,199.51,558.66,192.73,556.08,192.79Zm-13.73,25.88-.76.81L565,248l1.48-1.28Zm49.31,231.89c6.17-6,8.18-12.65,5.09-18.66Q594.2,441.23,591.66,450.56ZM321.75,204.05l22.71-5.58C336.54,197.49,328.61,196.51,321.75,204.05ZM674.41,432.57c-1.28,6.67-2.36,12.3-3.67,19.08C676.73,443.94,677.2,441.37,674.41,432.57Zm-109.27,34c6.73-9.32,8.94-15.59,7.9-22.23C570.28,452.05,567.71,459.29,565.14,466.53Zm9.78-211.92c-3.07,5.16-1.17,10.11,4.54,13.73C577.74,263.15,576.33,258.88,574.92,254.61ZM619.4,397.77l1.47.08q.64-11.93,1.28-23.86l-1.52-.08Zm5.71-69.95-1.49.28q2.63,9.82,5.26,19.65l1.28-.34Q627.64,337.62,625.11,327.82ZM581.65,560l.45.68,14-13Zm-89,43,.65,1.23,19.24-8.34-.54-1.23Zm72.1-348.32,1.72-1.09-9.09-13.1-1.19.78Q560.44,248,564.71,254.67ZM514.13,582.59l-.85-1.54-13.91,6.88.68,1.35Zm10.74-51.3.94,1.31,11-7.64-.9-1.28Z" transform="translate(-0.24 0.07)"/>
    <path class="shake1" d="M104,362.54c-.89-13.63.84-26.13,3.79-38.46,9.61-40.06,23.16-78.53,45.89-113.32,11.78-18,25.42-34.3,43.37-46.41,6.57-4.43,14-7.62,21.06-11.28,4.41-2.29,8.72-5.13,13.43-6.44,14-3.91,23.12-15.31,35.1-22.33,21.25-12.44,44.28-20,67.88-26a304.15,304.15,0,0,1,33.33-6.51c6-.83,12.24.13,18.35.52,1,.07,2.12,1.28,2.89,2.2.22.25-.59,2-.93,2-1.15,0-2.3-.6-3.47-.71-6.88-.6-13.93-2.38-20.61-1.47-32.51,4.43-64.07,12.4-92.55,29.46-18.5,11.08-34.11,25.91-50,40.31-5.13,4.65-10.46,9.07-15.7,13.59l-1.24-1.29,20.38-20.68-.53-1.07c-8.24,4.51-16.88,8.43-24.64,13.64-17.89,12-30.71,28.66-42.14,46.76C133.4,253.36,120,295.7,110,339.4c-1.64,7.13-3.17,14.29-4.77,21.42C105.15,361.1,104.85,361.33,104,362.54Z" transform="translate(-0.24 0.07)"/>
    <path class="shake2" d="M111.61,279.41a139.1,139.1,0,0,1,14.09-49.64c19.67-39.12,47.69-70.68,85.16-93.84,38-23.5,78.63-40.9,122-51.16,17.53-4.16,35.88-5.48,53.95-6.56,23.41-1.41,47-2.36,70.18,2.66a49.24,49.24,0,0,1,12.8,4.33c-85.4-15-164.73,1.82-238.85,43.16l.94,7.44-1.5.39-1.82-3.2L197.73,158.3l-1-1.1,24.63-22.52A207.16,207.16,0,0,0,151,195.42C132.45,220.79,118,248.15,111.61,279.41Z" transform="translate(-0.24 0.07)"/>
    <path class="shake3" d="M95.84,248.61c-1.37,2.68-2.59,5.44-4.13,8-14.34,23.8-22.82,49.86-29.37,76.62-4.9,20-6.22,40.46-6.87,61-.12,3.76,1.14,7.55,1,11.32-.16,6-1.31,11.93-1.36,17.9-.27,32.75,1.6,65.28,11.31,96.88.24.79.53,1.57.93,2.76l3.48-2.78c.83,4.15,1.21,7.73,2.28,11.09C79.8,552.31,89,572,102.92,589.18c12.14,15,24.16,30.13,35.77,45.78-2.14-2.05-4.36-4-6.42-6.17a295.55,295.55,0,0,1-40.71-53.6C84.23,563,74.7,552.12,69.76,538.4,61,514.11,55.14,489.15,53.2,463.48c-3.06-40.44-3.28-81,3.72-121.06A259.09,259.09,0,0,1,87.09,258.7c2.16-3.79,4.93-7.23,7.42-10.83Z" transform="translate(-0.24 0.07)"/>
    <path class="shake2" d="M248.07,670.9c-5.67-1.84-10.15-3-14.4-4.73C175,642.56,134.53,600.26,110.52,542.5,87,486,78,427.28,87.81,366.3c4-25.19,12.41-49,22.3-72.43a29.09,29.09,0,0,1,2.2-3.66l1.23.46c-.75,2.13-1.38,4.32-2.27,6.38C100.63,321.62,92.81,347,89,373.57c-4.71,32.82-3,65.41,3,97.94,7.93,42.82,22.75,82.67,48.4,118.28,25.53,35.45,59.2,59.93,99.44,76q3.47,1.38,6.92,2.83C247,668.68,247.07,669.11,248.07,670.9Z" transform="translate(-0.24 0.07)"/>
    <path class="shake3" d="M652.49,576c-1.53,3.52-2.58,7.35-4.65,10.52-19.64,30-42.91,56.8-74,75.19-22.31,13.17-44.57,27.57-69.86,34-20.53,5.2-42,7.65-63.17,9.14a313.3,313.3,0,0,1-155.15-28.32c-7.69-3.53-14.86-8.2-22.25-12.38a19.09,19.09,0,0,1-2.31-2c12.49,6,23.89,12.14,35.84,17,51.78,20.93,105.4,29.19,161.06,22.15q13.89-1.75,27.77-3.55a109.87,109.87,0,0,0,41.48-13.69c19.18-11.05,39.13-21,57.3-33.51,25.78-17.76,45.74-41.57,62.58-67.92,1.48-2.32,2.71-4.81,4-7.21Z" transform="translate(-0.24 0.07)"/>
    <path class="shake1" d="M364,668.9c-57.85,2.75-107.59-14.44-150.85-50.87l-1.23,1.86c3.44,3.52,6.82,7.1,10.32,10.56s7.15,6.87,10.17,10.92c-3.26-2.92-6.65-5.71-9.76-8.78-16.36-16.1-33.18-31.78-48.82-48.56C156.63,565.55,139,547.25,126,525.27c-10.12-17.14-17.52-35.22-17-55.62.1-3.71,1.2-7.39,1.84-11.08l1.45-.36q3.06,10.07,6.14,20.13l-1.42.58q-2-4.23-4-8.48l-1,0c.18,3.46.16,6.94.56,10.37,2.45,21.4,12.47,39.67,24.95,56.48,34.41,46.35,76,84.54,127.88,110.93,23.06,11.74,47.83,16,73.14,18.52C346.55,667.54,354.5,668.11,364,668.9Z" transform="translate(-0.24 0.07)"/>
    <path class="shake1" d="M466.2,120.18c1.36,0,2.84-.34,4.07.06,11.53,3.71,23.15,7.2,34.48,11.45s22.63,8.91,33.55,14.2c7.42,3.58,14.32,8.33,21.15,13,6.45,4.4,12.4,9.54,18.78,14.07a117.87,117.87,0,0,1,31.49,33c12,18.75,22.23,38.27,28.93,59.55a8.64,8.64,0,0,1,.28,5.17c-.76-1.45-1.61-2.87-2.27-4.37-10-22.74-20.81-45.09-35.55-65.19A108.41,108.41,0,0,0,584.17,183c-10.24-8.74-20.66-17.53-32-24.62s-24.29-12.27-36.52-18.25c-14.68-7.18-29.64-13.6-45.85-16.61a19,19,0,0,1-3.91-1.66Z" transform="translate(-0.24 0.07)"/>
    <path class="shake1" d="M724.38,341.62c5.4,11.95,6.31,24.68,7.68,37.38,4.38,40.79-2.42,79.84-17.27,117.8-5.64,14.4-10.74,29-16.12,43.51a8.54,8.54,0,0,1-3.24,4.36c1.22-3.53,2.48-7,3.67-10.6,7.54-22.56,15.47-45,22.51-67.74a215.34,215.34,0,0,0,5.69-106.1C726.11,354.07,725.34,347.82,724.38,341.62Z" transform="translate(-0.24 0.07)"/>
    <path class="shake3" d="M627.84,202.16c-14.7-22.26-33.31-40.75-54.23-57s-45-27.41-69.55-37.28C533.61,106.77,627,177.25,627.84,202.16Z" transform="translate(-0.24 0.07)"/>
    <path class="shake2" d="M12.93,307.77c-17.79,50.14-8.11,100,.89,149.86C-3.72,426.26-4.55,327.72,12.93,307.77Z" transform="translate(-0.24 0.07)"/>
    <path class="shake1" d="M97,236.24c15.83-33.8,39.75-61.29,66-86.94l1.59,1.27c-11.8,13.76-24.06,27.17-35.28,41.4S107.73,221.45,97,236.24Z" transform="translate(-0.24 0.07)"/>
    <path class="shake2" d="M114.94,561.68c-13.83-13.44-44.73-90.5-41.62-100.87,6,16.28,11.84,33.35,18.69,50S106.84,543.84,114.94,561.68Z" transform="translate(-0.24 0.07)"/>
    <path class="shake1" d="M666.94,599.82C640.6,650.23,597.59,683,549.65,710.39,596.28,681.62,638.35,648,666.94,599.82Z" transform="translate(-0.24 0.07)"/>
    <path class="shake3" d="M591.77,655.8c-3.26,3.21-6.3,6.68-9.8,9.6-23.11,19.24-49.6,32.19-78,41.55a15.17,15.17,0,0,1-2.91.67c-.41,0-.86-.28-2.47-.86,2.64-1.24,4.39-2.26,6.26-2.91a292.51,292.51,0,0,0,79.91-42.58l7.1-5.36Z" transform="translate(-0.24 0.07)"/>
    <path class="shake1" d="M615.39,156c-10.08-15.14-20.71-29.85-35.56-40.69-14.49-10.58-29-21.14-47.24-25,.12-.53.25-1,.37-1.58,1.58.09,3.27-.14,4.72.33,4.74,1.55,9.67,2.84,14,5.17,25,13.38,46.48,30.89,61.65,55.31,1.13,1.81,2,3.79,3,5.69Z" transform="translate(-0.24 0.07)"/>
    <path class="shake1" d="M51.69,595.93c18.69,31.5,39.39,61.63,64,89C103.63,678.65,61.82,620.5,51.69,595.93Z" transform="translate(-0.24 0.07)"/>
    <path class="shake1" d="M706.68,453.36c-9.78,29.83-23.39,57.57-45,80.93C680.8,509.57,695.2,482.27,706.68,453.36Z" transform="translate(-0.24 0.07)"/>
    <path class="shake3" d="M686.87,335.73c7.4,7.94,8.54,51.08,2,68.53C693.26,381.28,689.74,358.52,686.87,335.73Z" transform="translate(-0.24 0.07)"/>
    <path class="shake3" d="M238.31,62a300.34,300.34,0,0,1,74.94-20.16Z" transform="translate(-0.24 0.07)"/>
    <path class="shake1" d="M536.73,19.8c22.44,3.42,39.47,16.62,56.2,30.39C575.28,38.05,557.65,25.87,536.73,19.8Z" transform="translate(-0.24 0.07)"/>
    <path class="shake1" d="M670.19,283.53l-13.64-40.59,1.12-.43c5.24,13.33,12.22,26,14.58,40.4Z" transform="translate(-0.24 0.07)"/>
    <path class="shake1" d="M651.59,207.75c14.08,8.69,21.53,22.28,27.48,37C669.91,232.4,664.3,217.45,651.59,207.75Z" transform="translate(-0.24 0.07)"/>
    <path class="shake2" d="M393.29,668.59l43.9-1.94C428.94,670.87,410.57,671.42,393.29,668.59Z" transform="translate(-0.24 0.07)"/>
    <path class="shake1" d="M667.32,676.94c11.1-11.89,18.55-25.78,23.5-41.13C689.27,653.13,679.11,665.56,667.32,676.94Z" transform="translate(-0.24 0.07)"/>
    <path class="shake1" d="M712.39,380.11c-1.14-18-2.25-35.5-3.37-53.16C712.4,334.48,714.46,366.48,712.39,380.11Z" transform="translate(-0.24 0.07)"/>
    <path class="shake2" d="M91.36,164.49,75.58,190C76.47,181.91,85.88,165.6,91.36,164.49Z" transform="translate(-0.24 0.07)"/>
    <path class="shake1" d="M215.18,41.58a62.53,62.53,0,0,1,6.12-4c10.47-5.18,21-10.23,32-14.43L215.85,42.63Z" transform="translate(-0.24 0.07)"/>
    <path class="shake3" d="M612.69,583.15l20.45-19.5C632.21,569.29,622.57,579.6,612.69,583.15Z" transform="translate(-0.24 0.07)"/>
    <path class="shake1" d="M523.39,770.27l41.51-16.72C552.55,762.63,537.26,764.88,523.39,770.27Z" transform="translate(-0.24 0.07)"/>
    <path class="shake2" d="M335.35,747.9l48.07-2.15,0,.91-47.9,2.06Z" transform="translate(-0.24 0.07)"/>
    <path class="shake3" d="M103.32,113c8-8.08,18.32-11.89,28.89-15.32Z" transform="translate(-0.24 0.07)"/>
    <path class="shake2" d="M751.75,296.3a78.19,78.19,0,0,1,4.55,34Q754,313.29,751.75,296.3Z" transform="translate(-0.24 0.07)"/>
    <path class="shake3" d="M526.76,55.2,505.87,43.94l.89-1.73L528,53Z" transform="translate(-0.24 0.07)"/>
    <path class="shake1" d="M702.48,294.28l-10.87-26.87C698,275.24,701.08,284.42,702.48,294.28Z" transform="translate(-0.24 0.07)"/>
    <path class="shake1" d="M620.87,125.09,636.67,140l-.19.16-16.25-14.36Z" transform="translate(-0.24 0.07)"/>
    <path class="shake1" d="M659.27,112.67l-17.7-14.16C647.18,98.39,656.6,106.1,659.27,112.67Z" transform="translate(-0.24 0.07)"/>
    <path class="shake1" d="M70.53,151.66q8.1-10.71,16.22-21.41l1.1.81-16,21.72Z" transform="translate(-0.24 0.07)"/>
    <path class="shake1" d="M374.32,716.82l-19.24-2.39.26-2.18,19.11,2.65C374.41,715.54,374.36,716.18,374.32,716.82Z" transform="translate(-0.24 0.07)"/>
    <path class="shake1" d="M591.87,655.91,612,633.75l1.32,1.29L591.77,655.8Z" transform="translate(-0.24 0.07)"/>
    <path class="shake1" d="M698.49,219.92q3.19,7.82,6.38,15.64l-2.13.89-6.45-15.61Z" transform="translate(-0.24 0.07)"/>
    <path class="shake1" d="M461,3.39,443.35,2.06c.06-.71.11-1.42.17-2.13l17.64,1.86Z" transform="translate(-0.24 0.07)"/>
    <path class="shake1" d="M466.6,96.22l-19.29-4.37c6.56.61,13.32.17,19.51,3C466.75,95.34,466.68,95.78,466.6,96.22Z" transform="translate(-0.24 0.07)"/>
    <path class="shake1" d="M762.1,456.93l-4.47,18.75-1.37-.33q2.31-9.35,4.61-18.71Z" transform="translate(-0.24 0.07)"/>
    <path class="shake1" d="M659.77,687.28l-14.19,13.27-.08-.1,13.09-14.22Z" transform="translate(-0.24 0.07)"/>
    <path class="shake1" d="M211.86,399.14q1.74,20.28,3.49,40.58l-.68,0-3.75-40.45Z" transform="translate(-0.24 0.07)"/>
  </g>
</svg>
