<svg id="Layer_1" data-name="Layer 1" xmlns="http://www.w3.org/2000/svg" viewBox="0 0 933 688">
  <title>lines</title>
  <path id="circle-line2" class="line draw-line-fast" d="M922.1,687.75l-7.56-69.47c-.87-8.06-2.24-17-8.67-22C918.61,595,919.6,577,917.75,564.36s2.82-31.1,15.41-28.77L909,520.42a19.89,19.89,0,0,0,9.63-16l-19.45-5.7c.57-14.35,29-20.66,22-33.23-3.19-5.76-13.09-7.47-12.83-14,.17-4.41,5-6.79,8.81-9.09,12.18-7.44,17.75-25.24,9.68-37s-29.46-11.27-35,1.86c-.25-8.68-.82-18.19-6.77-24.51s-19.15-5.5-20.93,3c-10.61-19.89-37.61-23-60.11-21.45s-47.83,4.28-65-10.39c-5.15-4.42-9.43-10.35-15.89-12.41C707,336.25,696,357,682.3,367c-34.13,24.87-90.78-19.41-121.55,9.5C554.29,382.57,549,391.85,540.1,392c-17.34.3-24.85-34.31-40.34-26.51-3.62,1.82-5.75,5.67-9,8.12-7.09,5.38-17,2.84-25.94,2.24s-20.36,3.92-19.66,12.79c-18.63-16.77-46.47-34.21-66.3-18.88-3.76,2.9-6.82,6.84-11.16,8.77C351,386,336.05,359.33,317.86,361.25c-7.62.81-13.83,6.6-21.26,8.46-26.42,6.6-42.85-36.33-70.08-35.64-16.61.42-27.47,16.64-39.11,28.49s-34.34,18.89-42.68,4.53c-2.88-4.94-3-11.35-6.91-15.57-6.78-7.43-19.28-3-27,3.45s-15.56,14.89-25.61,14.41c-1.76-10.52-14.9-15.09-25.46-13.56s-20.36,6.9-31,7.63S5.42,357.27,6,346.63q20.55-11.88,42.11-21.91c-14.54-1.83-22.35-17.63-27.6-31.31l-6.44-16.77,28.27-12c-5.08-12.13-19.08-19.81-32-17.58-5.4-3.6-1.36-12.27,3.95-16s12.34-7.39,12.54-13.88c.31-10-15.93-13.86-16.48-23.85-.44-8.1,9.25-12.21,16.85-15S43.37,167.66,39,160.81c-8.06-11.94-9.77-26.92-11.26-41.25l-1.11-10.62-7-67.79"/>
</svg>
