<svg id="Layer_1" data-name="Layer 1" xmlns="http://www.w3.org/2000/svg" viewBox="0 0 947 656">
  <defs>
    <style>
      .cls-1 {
        fill: none;
        stroke: #fff;
        stroke-linecap: square;
        stroke-linejoin: round;
        stroke-width: 3px;
      }
    </style>
  </defs>
  <title>lines</title>
  <path id="circle-line3" class="cls-1" d="M917.07,652.34A54.88,54.88,0,0,1,932,612.74c-6.15,2.09-10-6.53-10.79-13l-5.31-45.25c-3.32-20.8,8.58-43.1,27.71-51.91-8.38-2.58-17.44-5.65-22.25-13s-1.62-20,7.12-20.62c-8.44,2.86-18.69-3.71-19.61-12.58s7.74-17.41,16.59-16.36L910.38,419a128.4,128.4,0,0,0,26.37-46.07L903.36,371l15.12-24.32a33,33,0,0,0-31.68-3c-5.12,2.28-10.47,6-15.8,4.26-8.45-2.74-8.45-16.21-16.43-20.11-8.21-4-16.4,4.81-24.25,9.51-28.65,17.14-62.29-22-95.33-17.23-8.35,1.22-16,5.23-23.76,8.53a149.54,149.54,0,0,1-90.82,8.18c-7.1-1.6-14.33-3.75-21.53-2.72-12.64,1.8-22.81,13-35.56,13.31-16.47.36-29.8-17.61-46.1-15.32-11.92,1.67-23.24,14-33.91,8.42-4.61-2.41-7.66-7.85-12.81-8.55-7.15-1-11.71,7.53-18.33,10.41-13,5.63-25.14-11.78-39.28-12.16-11.76-.31-21.49,11.3-33.24,10.53-6.93-.45-12.72-5.13-18.85-8.41a50.66,50.66,0,0,0-43.95-1.56c-7.79,3.49-15,9.06-23.47,9.81-23.93,2.12-37.31-33.2-61.32-33.75-14.84-.34-25.91,12.69-36.78,22.81s-28.74,18-39.54,7.77c-5.61-5.29-8.13-14.71-15.67-16.34-3.39-.73-6.87.45-10.14,1.6L91.15,336.39l-8-15.33a20,20,0,0,0-14.5,13.25l-51-13.87a41.36,41.36,0,0,1,31-23.15A60.85,60.85,0,0,1,35.9,263.14c-4.85,4.51-12.75-3.52-10.86-9.86s8.39-9.9,13.91-13.57,11.09-9.54,9.55-16c-2-8.21-12.91-9.56-21.34-9.15a22.88,22.88,0,0,1,9.51-25.74C26.59,186.63,19,176.32,19.82,166.05s10.05-19.21,20.35-19.74a44,44,0,0,0-9-34.13l9.27-30.46C26.74,58.19,27.8,26.89,43,4.34"/>
</svg>
