<svg id="Layer_1" data-name="Layer 1" xmlns="http://www.w3.org/2000/svg" viewBox="0 0 959 688">
  <title>lines</title>
  <path id="circle-line1" class="line draw-line" d="M929.25,672.15a69.21,69.21,0,0,1,10.16-45.36c-26.43-35.67-20-91.46,13.91-120.13a51.13,51.13,0,0,1-33.29-7.4l15.28-17.45c-8.58-6.33-24.7,2.25-29.69-7.18-6.91-13.08,24.27-17.15,25.14-31.91.32-5.41-3.9-10.06-4.69-15.42-2.51-17.05,28.38-31.46,17.44-44.76-4.74-5.76-13.63-4.47-21-3.75a75.39,75.39,0,0,1-64.56-27.05c-3-3.72-5.85-7.87-10.15-10-12.64-6.11-25.07,9-38.72,12.29-17.13,4.16-32.31-10.66-44.88-23S732,307.11,717.64,317.33c-5.76,4.1-8.95,10.82-13.39,16.33-20.25,25.17-59.31,20-90.63,12.09-15.31-3.87-34-6.91-44.74,4.71-4.8,5.21-7.31,12.9-13.74,15.87-18.8,8.67-32.4-32.67-51.84-25.55-7.41,2.72-11.29,11.94-19,13.61-11.06,2.41-25.44-11.28-31.73-1.86-1.55,2.31-1.66,5.31-2.87,7.82-4,8.26-16.69,6.61-23.94,1s-12.82-14-21.6-16.67c-15.44-4.7-31.53,10.71-47.13,6.56-10.86-2.88-18.13-14.61-29.29-16-12.78-1.6-23.18,11-35.95,12.61-23.68,3-38.63-31.15-62.49-30.63-27,.59-45.34,45.08-69.45,32.88-10.54-5.34-14.5-19.94-25.69-23.73-18.38-6.23-35.82,22.06-53.95,15.15-8.42-3.21-13.64-13.42-22.62-14-5.55-.35-10.52,3.23-15.92,4.53C30,334.84,17,324.46,17.25,312.43s13.49-22,25.09-18.74c-9.43-16.93-18.75-38.53-7.69-54.44,2.51-3.59,6.07-7,6.13-11.35.17-12.39-22.35-8.74-29.22-19.05a29.8,29.8,0,0,1,21.62-17.23,66.23,66.23,0,0,1-20.94-39.86c8.69,6.14,21.66.13,26.6-9.29S43,121.78,42.1,111.19L34,16"/>
</svg>
