<svg id="svg-shapes" xmlns="http://www.w3.org/2000/svg" viewBox="0 0 522.91 518.05">
  <title>3-simple-shapes</title>
  <g id="square">
    <g id="outer-square">
      <g id="outer-square-right">
        <path d="M517.09,184.18c0,2.91,0,5.82.06,8.72.67,32.4,2.44,64.76,3.9,97.14.25,5.59,1.22,11.15,1.86,16.73V129.1c-1.36,2.16-3.81,4.28-3.92,6.51-.77,16-1.81,32.1-1.9,48.15l-.89,3.53c.52-32.07,1.46-88.87,2.32-133.37.34-17.59,1.87-35.15,2.88-53.16H500.69q-1.26,6.74-2.52,13.54l-.57,0c.27-4.46.53-8.91.81-13.65H491.3c-.48,7.57-1.38,15.14-1.37,22.71.07,35.41.65,70.82.51,106.23-.07,18.59-1.19,37.19-1.92,55.78-1.2,30.4-3,60.79-3.59,91.2-1.4,77.82-2.23,155.64-3.32,233.46-.05,3.13-.45,6.26-.69,9.39h7.81l2-131.15h.34l3.48,131.15h7.81c-.59-21.27-1.5-42.53-1.7-63.8-.29-31.91-.07-63.83-.07-95.46,4,52.81,3.21,106.05,3.73,159.26h18.55v-11c-.86-9.73-1.8-19.45-2.58-29.18q-7.53-93.54-5.86-187.38.88-51.1,1.7-102.23l.76-4.82c-.24.91-.48,1.83-.73,2.75v-.16C516.52,186.24,517.05,184.33,517.09,184.18ZM493.6,280.53l-1.07,0L494,233.65l2.15.1Z"/>
      </g>
      <path id="outer-square-bottom" d="M284.37,519.38H.91c9.86-1.4,19.67-3.5,29.57-4.08,51.62-3.07,103.23-6.46,154.89-8.37,47.86-1.76,95.78-1.81,143.67-2.58,18.94-.3,37.73-1.86,56.22-6.21a32.09,32.09,0,0,0-5.87-.24c-33.66,1.65-67.31,4-101,4.84-44.38,1.12-88.81,2-133.19,1.22a960.5,960.5,0,0,0-99.52,3.92c-14.63,1.26-29.48.21-44.5.21V496.64l85.15-5.11,0-1.68h-69v-1.54c6.76-.7,13.51-2,20.28-2,41.07-.12,82.15.27,123.22,0,23.77-.14,47.54-1.14,71.31-1.76-35-2.24-70-1.39-104.83-5.9a12.64,12.64,0,0,1,4.72-1.32c17.24-1.15,34.49-3.11,51.74-3.19,44.23-.21,88.47.76,132.71.64,51.55-.14,103.11-.81,154.65-1.52,17.28-.23,34.55-1.26,51.82-1.93V488c-12.1.51-24.2,1-36.29,1.56-6.78.33-13.58.67-20.32,1.44-6.48.75-12.89,2.07-20,3.24,4.72.81,9.9.21,12.22,2.45,3.51,3.39,7,2.7,10.71,2.9,4.47.24,8.95.58,13.43.56,13.41-.05,26.83-.25,40.25-.39v12.74c-12.63.13-25.28-.13-37.88.47-26.38,1.25-52.71,3.61-79.09,4.29-37.22,1-74.47.8-111.71,1.19C290.94,518.51,287.66,519.06,284.37,519.38ZM167,497.67l.18.45h89.3c0-.71,0-1.42,0-2.13ZM404.35,500l.25,1.45,34.32-1.55-.08-1.45Zm-16.11-7.73V493h32.16v-.73Z"/>
      <path id="outer-square-left" d="M30.69,478.94q-.92-167.88-1.83-335.77c-.17-43.74.44-87.48.7-131.22,0-3.75,0-7.51,0-11.3H21.27c-.63,4.59-1.72,9-1.76,13.36-.44,48.56-.94,97.12-1,145.68,0,32.6,1.21,65.19,1.06,97.78q-.12,24.5-.41,49c-1.34-16.72-3.1-33.43-4.93-50.11L15,.77H9C9,11.11,9.06,21.07,9,31c-.68,91.11-1.58,182.22-2,273.33-.33,71.66-.06,143.33,0,215h6.62q.36-128.73.7-257.44l4.65,69.91c-.73,62.51-1.36,125,1.28,187.53H30.61C30.64,505.88,30.76,492.41,30.69,478.94Z"/>
      <path id="outer-square-top" d="M522.73,2.41v7.81l-37.37,2.87c1.2,3.32.06,4.7-2.93,5.11-3.61.5-7.17,1.37-10.79,1.8-7.79.93-15.6,1.68-23.4,2.5a8.76,8.76,0,0,0,4.61,1.25c19.1.69,38.21,1.31,57.31,2.05a57.27,57.27,0,0,1,7.06,1.13c-.07.63-.14,1.25-.2,1.87-3.57.33-7.14.95-10.7.93-30.1-.18-60.19-.53-90.29-.73-60.2-.39-120.33,1.82-180.42,5.35-33.84,2-67.69,3.9-101.56,5.22C91,41.25,48,42.3,5,43.59a30.67,30.67,0,0,1-3.8-.35V38.57L299.9,24.93l0-1.47L1.14,20.89V14.68H46.92l0-1.18L1.3,11V2.21L326.09,0V.91L122.92,8c29,1.76,57.86,3,86.78,3,41.23-.07,82.46-1,123.69-1.76Q371,8.48,408.67,7C446.7,5.63,484.71,4,522.73,2.41Z"/>
    </g>
    <g id="inner-square">
      <g id="inner-square-right">
        <path d="M491.77,259.49c-.48-44.38-2.6-88.75-3.61-133.13-.91-39.88-1.31-79.78-1.93-119.68,0-1.95,0-3.91,0-6.14H466.38c-.31,6.69-.69,13.36-1.07,20-3,6.29-3.6,13.61-3.64,20.66,0,6.26.27,12.61-.62,18.78.42-17.53.89-35,1.19-52.58,0-2.36,2.25-5.79-1.82-6.78-.31-.07-2.36,4.41-2.48,6.82C457.12,23.72,456.29,40,456,56.29c-1.43,87.49-3.18,175-3.86,262.47-.52,66.87.4,133.75.68,200.62h4.91c0-.83.07-1.66.06-2.49-.88-148.39-.35-296.78,3-445.14.08-3.84.18-7.69.27-11.53l3-14.17c-.14,4.13-.24,8.26-.27,12.4-.57,76.32-1.28,152.66-.85,229,.43,76,2.17,152,3.35,228,0,1.32.18,2.65.27,4h6.87c-.89-74.36-2.1-148.72-2.57-223.08-.47-74-.2-148.07-.24-222.1,0-1.94,0-3.88,0-5.82h1.7c0,17.29-.25,34.58,0,51.86q1.38,79.09,3.13,158.17c1.39,59.37,3.12,118.73,4.61,178.09.53,21,.78,41.91,1.16,62.87h10.8c.3-6.3.88-12.61.86-18.91C492.66,420.14,492.64,339.81,491.77,259.49ZM480,227.61c-1-71.4-5.89-142.76-2.32-214.2C483.35,84.76,479.07,156.21,480,227.61Zm.89,39.79-.3,0V239.14h.3Zm6.89,79.74-.27-.21V320.22h.27Z"/>
      </g>
      <path id="inner-square-left" d="M68.2,519.38H63.28c-1.61-36.19-3.6-72.37-4.73-108.58-1.19-38.22-1.49-76.46-2.28-114.69Q53.9,181.44,51.41,66.76c0-1.19-.18-2.38-.27-3.57a41.74,41.74,0,0,0-2.09,11.19c-1.15,16.72-3.47,33.47-3.11,50.17,1.28,58.83,3.68,117.63,5.29,176.46,1.64,60.32,2.85,120.66,4.26,181q.43,18.69.9,37.38h-5.9c-1-49.05-1.87-98.1-3.17-147.14C46,321.88,44.07,271.53,42.65,221.16c-.43-15.26-.07-30.55-.07-45.82l-2.13-.05c-.56,10.08-1.58,20.16-1.61,30.24-.13,42.58.09,85.16.07,127.74q0,93-.22,186.11H30.81C29.63,459.21,27.33,399,27.58,338.86c.23-53.16,3.34-106.32,5.11-159.48.67-20.1,1.17-40.2,1.73-60.31Q36,61.76,37.6,4.43c0-1.27.22-2.54.32-3.69h7.51v33a93.33,93.33,0,0,0,2.23-16.27c.37-5.56.59-11.13.88-16.81H60.46c10.74,148.9,10.77,297.77,9.34,447h9.13c.34,4.25.65,8.19,1,12.13q2.5,29.81,5,59.6H72.14c-.12-6.8,0-13.62-.39-20.4-1.4-22-3-44.06-4.55-66.09Q66,415.66,64.84,398.43c-.37,18.93.16,37.82.84,56.71C66.45,476.56,67.35,498,68.2,519.38Z"/>
      <path id="inner-square-bottom" d="M522.89,450.74v11.61c-1-.05-2-.15-3-.13-52.81,1-105.61,1.94-158.42,3.15-14.73.34-29.45,1.55-44.17,2.37a32.59,32.59,0,0,0,6.24.36c15.78-.3,31.55-.7,47.33-.91q76-1,152-1.94V473l-58.67,4.48a3.48,3.48,0,0,0,.95.22l57.72,1.11v4.84c-18.79-.31-37.58-1.1-56.36-.84q-124.44,1.68-248.87,3.87-105.74,1.81-211.46,4c-1.61,0-3.22,0-5,0V482.8c94.2.38,187.75-7,281.35-13.59L.63,475.84l.73-5.43,84.52-1.59,0-.65L0,464.26l2.65-6.74c-2.08-.69-2.08-.69-1.22-6.69H7.19q68.09.44,136.18.86c53.21.39,106.41,1.1,159.61,1.18,53.87.08,107.74-.35,161.61-.76C484,452,503.46,451.21,522.89,450.74ZM10.42,458.88c91.5,7,183.05,1.6,274.58,1.55v-1.55Zm368.47,13.38-.11.44h57.91v-.44Z"/>
      <path id="inner-square-top" d="M522.91,28.27v4.89c-12.46-.31-24.93-.83-37.39-.91q-93.27-.62-186.54-1c-14.46-.05-28.93.39-43.37,1.12-27,1.36-54,3.39-81.08,4.6-31,1.38-62.11,2.26-93.18,3.18-10.22.3-20.47,0-30.7,0v1.41c4.63.29,9.25.63,13.88.88,13.6.75,27.24,2.44,40.81,2,28.72-1,57.38-3.26,86.09-4.58,32.87-1.53,65.75-3.31,98.64-3.68,53.68-.61,107.37,0,161.06-.24,23.93-.13,47.85-1.21,71.78-1.86V45.88L402.34,48v.18l120.56,1.61v9.79Q469,58.72,415.18,57.9c-41.74-.57-83.48-1.78-125.2-1.32-43.55.49-87.07,2.65-130.6,4.08-11.47.37-22.94.58-34.4,1.13-23.29,1.13-46.57,2.43-69.85,3.65-3.65.19-7.31.45-11,.47-14.24,0-28.49,0-42.87,0V57.62c49.39,0,98.43.78,147.28-3.69l0-1.85L1.14,54.62V50.36L40,48.47v-1.1L1.15,44.68V36.57l96.33-1.64V34.4H1.13V29.52c1.65-.09,3.11-.22,4.57-.24C95.32,28,184.94,26.06,274.56,25.73c80.48-.3,161,1.17,241.44,1.9C518.31,27.65,520.61,28.05,522.91,28.27ZM168.74,46.34l.07,2,138.5-4.85c0-.83-.06-1.66-.1-2.48Z"/>
    </g>
  </g>
</svg>
