<svg id="svg-shapes" xmlns="http://www.w3.org/2000/svg" viewBox="0 0 528.99 521.91">
  <title>3-simple-shapes</title>
  <g id="triangle2">
    <g id="inner-triangle">
      <path id="inner-triangle-right" d="M499.13,501.52l-12.81-7.13.66-1.52,5.82-1c-10.86-1.67-12.76-10.39-16-18.48l7.07-1.44c-1.28-1.46-2.68-2.17-3.9-1.94-4.23.81-6.25-1.19-8.07-4.78-35.73-70.73-72.81-140.8-103.32-214.06-.73-1.75-1.36-3.54-2-5.3l1.8-.79c5.63,10.33,12.21,20.27,16.73,31.07,18.54,44.24,36.91,88.52,60.59,130.34,9.79,17.29,20.18,34.24,30.29,51.35l2.52-1.31c-26.61-53.36-56.69-105.11-77.7-162.77l6.68,6.87a15,15,0,0,0-2.9-7.26c-9.49-11.51-15.1-25-20.36-38.76-3.83-10-7.82-20-12.08-29.81Q323.86,113,275.47,1.33h-5.13q50.79,120,101.57,240.1l-1.77,1c-9.27-16.5-20.36-32-25.53-50.71-12.24-44.28-31.78-85.7-50.49-127.45Q280.05,32.85,266.23,1.33h-4.5c9.66,21.58,19.39,43.14,28.79,64.86,13.72,31.72,27.14,63.58,40.64,95.4a11.17,11.17,0,0,1,.84,7q-12.08-26.91-24.13-53.82C292.39,80,277,45.17,261.41,10.44a34.47,34.47,0,0,1-2.91-9.11H223.67l1.64,3.55,1.41.73-.58,1.07,5.27,11.37c2,2.51,2.84,4.11,2.71,5.84l5.34,11.53.35-.41c12.22,26.75,24.1,52.35,35.67,78.1.11.24.21.48.32.71L413.71,411.44c8.71,15,17.77,29.83,26.84,44.65,1.34,2.2,2.58,4.47,5.05,8.77-2.43,0-4.8,0-7.14,0l4.11,8.86,6.31,0c0,.42,0,.84,0,1.26l-5.75,0,2.43,5.24c6.62.06,8.23,1.59,9.57,5.23l-7.62-1,2,4.26q6.93,1,13.86,2.09c.51.08.83,1.31,1.79,2.93-2.76-.12-4.62-.26-6.49-.29l-7-.11,1.54,3.31c2.81.28,5.63.52,8.45.56,5.79.08,8.18,2.93,8.94,8.81q-6.51.07-13,.09l2.19,4.73,37.76,1.7c1.74.07,3.53-.67,5.3-1l-11.13-9.22Zm-50.34-65.06-1.63.87c-21.43-34.44-40.55-70.12-55.93-108.09ZM389.12,313.74c-9.07-16.06-20.14-31.23-22.52-50.29Q377.87,288.61,389.12,313.74ZM252.32,16.61C284.69,96.4,330.5,170.06,358.77,251.72l-2.23,1Q303.25,135.22,250,17.69ZM319.25,186.7C293,134.26,266.79,81.78,243.69,27.85l2.48-1.16q37.4,79.59,74.81,159.19Zm20.86,46.72q21.22,44.29,42.46,88.58l-1.59.78-42.76-88.15Zm74,171.26c-18.9-32.78-33.91-67.45-47.78-102.85l49.35,102.09Zm43.06,59.26c-1.86-1.27-4.48-2.11-5.46-3.87-9.43-17-18.6-34.1-27.8-51.2-.26-.49-.15-1.17-.38-3.3,12.09,19.67,23.42,38.08,34.74,56.49C457.89,462.69,457.52,463.31,457.16,463.94Z"/>
      <path id="inner-triangle-left" d="M289.23,1.33a9.47,9.47,0,0,1-1,3.12c-21.41,36.49-43.1,72.81-64.56,109.27-7.13,12.1-13.78,24.48-20.65,36.73l1.44.82,30.69-49c.1,3.2-1,5.72-2.21,8.24-33.32,71.82-70.81,141.43-110,210.18-24.09,42.2-46.16,85.55-69,128.47-2,3.69-2.12,8.31-3.93,12.11-2.86,6-6.46,11.67-9.65,17.53C34.75,489,29.24,499.31,23.71,509.57H80.17l4.42-7.07-1.16-1.8c1.4-.86,2.79-2.13,4.19-3.07l4.26-6.85,0-2,.84,0,2.94-7.42-1-2c1.92-1.43,3.85-4.12,5.75-4.1l4.43-7.07c-1.25-.11-2.38-.23-3.35-.34,2.54-5.05,2.24-11.81,11.16-11.28,1.91.12,4.16-5.42,6.74-9l-6.85-2.14c.6-1.51,1.07-2.91,1.7-4.25,27.84-58.63,55.92-117.16,83.48-175.93,21.74-46.33,42.14-93.3,64.51-139.31,13.74-28.24,30.07-55.22,45.26-82.75a43.8,43.8,0,0,1,3.16-4.16l3.91-6.78-.31-.63,1-.52,5.33-9.22-.42-.82,1.28-.65,7.49-13a23.08,23.08,0,0,1-1.22-6ZM294,8.92l2,.92L282.1,38.31C283.6,27.39,286.06,16.91,294,8.92ZM279.7,32.63c-13.38,48.4-41.76,89-68.28,130.62C232.48,118.83,251.71,73.46,279.7,32.63ZM35.48,505.17c3.83-8,10.91-3.34,15.89-6C50.4,506,49.59,506.34,35.48,505.17ZM41.15,496c3.32-7.21,9.25-4,14.14-4.85.21.88.43,1.75.64,2.63Zm6.62-15c2-6.73,2.78-7,15.38-5.46C61.74,482.42,59.78,483.12,47.77,481Zm6.56-13c3-13.12,4.9-14.45,18.62-12.32C69.26,468.49,67.51,469.61,54.33,467.94Zm46.94-54.13-2-1c33.53-70.54,65.33-141.94,103.65-210.12l2.54,1.26Q153.34,308.87,101.27,413.81ZM230.4,148.13c-9.38,17.32-18.71,34.68-28.22,51.92-12.42,22.5-25.66,44.57-37.35,67.43-20,39.06-39.14,78.53-58.38,118-8,16.32-15.21,33-22.8,49.49-4.76,10.35-4.78,10.34-17.16,9,8.31-14.49,16.56-28.11,24.07-42.13,12.65-23.64,24.81-47.55,37.23-71.31,3.39-6.48,7.28-12.72,10.34-19.34,1.44-3.12,7.25-5.42,2.74-10.35-.33-.36,1-2.31,1.64-3.46q39.83-69.49,79.71-138.95c2.42-4.21,5.22-8.2,8.9-14C230.65,146.91,230.69,147.61,230.4,148.13ZM301.86,34.31q-27.17,50.55-54.1,101.24c-1.13,2.12-2.22,4.26-3.32,6.39l-1.48-.71q28.28-60.45,56.58-121C305.54,26.65,305.45,27.62,301.86,34.31Z"/>
      <path id="inner-triangle-bottom" d="M525.23,483.4a15.29,15.29,0,0,1,4.61.49v-25.7l-10.69-.05-.18.24c-.19-.09-.39-.17-.6-.25l-12.65-.07,1.23,1.42c-14.74.37-27.81,1.19-40.84.94-29.47-.56-58.91-2.23-88.37-2.4-64.49-.38-129-.11-193.47-.11a165.63,165.63,0,0,0-18.48.69l231.15,5.71c-45.61,3.58-288.73,1.66-337.28-1.58H18.81c-2.24.45-5.24.36-9.51,0H0v17.38c2.79-.31,5.88.26,8.64-.1.22.66.44,1.31.67,2L0,483v3.73A13.63,13.63,0,0,0,4.61,486C4,489.1,3.47,490.42,0,490.79v3H37.85c8.37-.6,16.72-1.37,25.1-1.77q46.81-2.24,93.64-4.22c19.82-.81,39.67-1.89,59.48-1.75,16.84.12,33.65,1.81,50.47,3.76q-50.63,1.46-101.24,2.94c-6.81.21-13.61.69-20.41,1H257.4c20-.5,40-1.18,60-1.42,7-.08,14,.92,21,1.42q95.75,0,191.48,0V490c-62.2,2.44-124.08,2.57-186-.25l-.06-1.31q80.08-2.71,160.17-5.36C511.05,482.82,518.16,483.57,525.23,483.4ZM.9,472.36c2.1-5.05,2.86-5.24,15.84-4.09C15.29,473.45,13.27,474,.9,472.36Zm517,2.37-30-1.92C512.38,470.16,515.36,470.35,517.9,474.73Zm-7.1-8.7c0,.32.05.64.08,1L462,468.76c0-.29-.05-.58-.07-.88ZM55.1,468c24.65.2,49.3.68,74,1.12a3,3,0,0,1,2.33,1.37l-81.17,2.09-1-1.5C51.15,470,53.14,468,55.1,468ZM38.83,488.52l-1.19-1.35c2.5-1.13,5-3.19,7.53-3.25,31.38-.83,62.77-1.37,94.16-2l.07,1.55Zm96.46-8.94c-27.79-1.06-55.73,0-83.61.14H46.34l0-1.53,223.59-3A906.68,906.68,0,0,1,135.29,479.58Zm167,7.76c-19.49.21-39-2.28-58.57-3.56,94.27-6.71,188.4-13.28,283-5.29.54,0,.93,1,2,2.16-2.89,0-4.84,0-6.79,0-42.21.94-84.44,1.64-126.63,2.92C364.29,484.52,333.33,487,302.31,487.34Z"/>
    </g>
    <g id="outer-triangle">
      <path id="outer-triangle-left" d="M253.87,1.33c1.07,8-6.83,12.09-8.9,18.71l-1.45-.62,7.91-18.09h-4.18C241.89,13.41,236.42,25.45,231,37.5l-1.41-.86q7-17.65,14-35.31h-4.64c-8.39,17.1-16.44,34.36-22.38,52.57a74.15,74.15,0,0,1-5.41,11.83c-17.1,31.86-35,63.33-51.3,95.58C112.87,254,64,345.79,23.12,441.45c-.76,1.78-3.15,2.82-4.67,4.33s-2.91,3.17-4.69,5.14L19,453.4,7.76,461.25l5.49,2.64c-1.36,4-2.28,7.86-7.56,7.16-.62-.09-1.68.75-2,1.42-3.6,6.93-7.1,13.92-10.79,21.21l7,.9c-3,6.23-3.45,13.95-12.88,13.28-.82-.06-1.74,1.49-2.62,2.3H29.94c1.09-.89,2.1-2.39,3.28-2.54,4.07-.51,8.2-.55,12.82-.8-.39,1.42-.65,2.38-.9,3.34h6.51A6.56,6.56,0,0,1,55,506.53l2.49-4.85-.89.05c2.38-7,3.25-9.58,6.24-10.44L77,463.79h0c-3.89-.54-2.37-3.6-1.28-5.85,4.71-9.75,9.65-19.4,14.18-29.24,21.36-46.3,42.35-92.76,64-138.94,23.38-49.95,47.36-99.62,70.93-149.48,7-14.85,13.55-29.94,21.16-44.58q-10.5,27-21,54.09c19.54-33.49,34.41-69.07,48.36-105.08l1.48-.21,1.11,2.16,3.12-8.79-1.65-3.58L279,33.5c.31.54.61,1.09.91,1.63l8.79-24.71A4.72,4.72,0,0,1,289,8.25l.29.59,2.67-7.51Zm2.77,8.37Q226,72.57,195.34,135.42C211.53,91.46,229.93,48.56,256.64,9.7Zm-7.89,28.4,2.11,1q-49,107.35-98.05,214.7l-1.62-.64C178.62,179.13,216.06,109.69,248.75,38.1ZM148.57,255.62c-1.29,4.52-2.13,9.23-4,13.51-4.18,9.77-8.26,19.68-13.44,28.93-12.61,22.54-25.82,44.73-38.79,67.07l-1.16-.79q29.93-61.3,59.84-122.6l1.34.48Q150.48,248.93,148.57,255.62ZM170,159.9C128.83,250.41,87.15,340.67,39.22,429,40.78,412.81,148.05,191.53,170,159.9ZM71.2,384.47l.89.36c-1.22,3-2.39,6-3.67,9-6.78,15.77-13.72,31.48-20.3,47.33-1.86,4.5-4.24,6.45-9.58,4.3ZM41.77,453.3c-.67,6.52-4.25,7-9.33,5.11C33,452.39,36.8,452.23,41.77,453.3ZM8.64,505c2.45-11.21,4.46-12.82,15.07-11.79C19.73,505.2,18.44,506.18,8.64,505Zm17.64-34.88c1-7.19,5.55-4.48,10-4.31C34.45,472.61,29.77,469.11,26.28,470.11Zm7,32.85c2-10.76,5.26-12.72,19-11.6C51.51,501.52,46.76,504.43,33.25,503ZM52,460.53c1.55-8,2.47-8.34,15.72-6.34C66.18,463.42,64.71,464,52,460.53Zm66.62-129.3c-14.78,36.29-29.74,72.5-44.23,108.91-2.27,5.69-4.91,8.22-10.92,6.86a44,44,0,0,0-5.87-.4c19-41.31,38.73-81.2,62.21-119.24C119.46,328.65,119.17,330,118.66,331.23ZM132,318.57l-1.73-1,32.88-70.13,1.67.79Zm71.36-150.19A744.91,744.91,0,0,1,267.57,30Q235.44,99.16,203.32,168.38Z"/>
      <path id="outer-triangle-right" d="M543.18,500.36c-10.08-3.22-11-13.83-16.89-22.1h7.44c-.29-.81-.32-1.25-.54-1.45-.39-.36-.91-.85-1.33-.81-7.47.88-9.63-5.19-12.11-10.7-24-53.33-49.06-106.14-71.57-160.18C421,239.81,393.86,174.49,363.13,111c-1.43-2.95-2.88-5.9-4.31-8.86l-.87.49q22.74,56.06,45.49,112.1a128.25,128.25,0,0,1-9.74-17.26C361.42,132.1,329,66.82,297.05,1.33H258.33l6.39,24.72.18-.32c-.06.13-.11.25-.17.37l4.58,17.72c.35-1,.7-1.9,1-2.85l1.42-.22L332,167.23l1-.5Q303.62,98.47,274.26,30.2l1.64-.8c75.52,144.08,141.76,293.13,206.2,443.14L481,473.68,478.62,472l9.68,28.33q2.06.42,4.11.9h-3.8l3.37,9.85a5.65,5.65,0,0,1,4,1.93h-3.36l1.65,4.81c2.55-.06,5,0,4.82,4h3.14c.51-1.35.9-3.78,1.55-3.86,2.9-.38,6.51-1.31,6.81,3.86h4.18c-.22-1.21-.45-2.43-.67-3.65,4-1.37,6.74-.7,8,3.65h3.13c-.26-1.58-.44-3.19-.81-4.75-.9-3.71-1.9-7.39-2.86-11.09,10.74-3,12.72-2.2,19.45,8.07,1.15,1.76,2.81,3.15,4.7,5.23C548.31,511.52,537.51,507.67,543.18,500.36ZM285.51,3.32l13.95,30.57C290.4,22.33,283.73,7.57,285.51,3.32ZM487,413.38C436.33,311.53,384.89,210.1,339.8,105.16,392.1,206.12,443.9,307.35,487,413.38Zm24.42,58.37-1.54.88L476.5,405.55l1.48-.86Zm-20.24,2.89c-1.91-1.42-4.73-2.38-5.6-4.34Q428.79,342,372.31,213.48a8.67,8.67,0,0,1-.37-1.46c43.25,85.51,84.89,171.68,120.72,260.91Zm7.28-.35a38.4,38.4,0,0,1-3-5q-15.48-37-30.85-74c-2.16-5.17-4.45-10.28-6.68-15.42l1.26-.62,41.19,93.74Zm1,3.55c5.15,1.49,5.3,6.79,8.09,11.41C499.85,488.38,501.39,481.8,499.48,477.84Zm8.29-1.37,10.63,13.45C511.77,490.15,509.16,486.91,507.77,476.47Zm21.87,21.22L515,496.56l.27-2.69,14.59,1.62C529.77,496.22,529.7,497,529.64,497.69Z"/>
      <path id="outer-triangle-bottom" d="M528.73,496.91V474.59l-.24-.41-12-.4,1.63,2.81-1.6.79-2.13-3.66-9.94-.33,2.19,4.26-2,1.2a34.35,34.35,0,0,1-3.15-4.46l-.54-1.12-4.49-.15c.71,1.51,1.44,3,2.14,4.53l-1.53,1.52c-2-1.27-4.91-2.13-5.8-3.87-.42-.79-.83-1.59-1.24-2.39l-4.67-.15,2.28,4.53-1.13,1-3.6-2.15c-4.51.64-8.2,1.65-11.89,1.62q-64.27-.63-128.56-1.53a60.65,60.65,0,0,0-10.83.6l21,1.94,0,1.47c-23.93.54-47.85,1.45-71.78,1.55-55.8.23-111.61.07-167.78.07l1.41-4.79-4.6.15c-1.11,1.3-1.45,3.64-2.85,5.1-11.54-1.21-23.56-2.28-35.51-3.82L6,477.83l1.78.78c-1.35,3.66-2.27,7.23-7.56,6.59H0v35.94H24.49c1.09-.81,2.1-2.19,3.28-2.33,4.07-.47,8.2-.51,12.82-.73-.39,1.3-.65,2.18-.9,3.06H46.2c1.27-2.66,3.25-3.86,6.64-4,11.91-.37,23.8-1.1,35.69-1.66,1.74-.08,3.5,0,5.78,0-.57,2.24-1,3.94-1.44,5.64h80.31c10-.87,20.09-1.81,30.15-2.61,9.18-.73,18.36-1.64,27.56-1.86,8.25-.19,16.55.93,24.78.63,25.1-.93,50.23-1.63,75.24-3.58a1226.08,1226.08,0,0,1,166.76-2.14,6.36,6.36,0,0,1,4.39,1.73c-2,0-4.08,0-6.12,0A1374.28,1374.28,0,0,0,350.31,519c-5.17.48-10.28,1.45-15.42,2.18h53.18c11.66-.69,23.31-1.7,35-2,25.58-.69,51.16-1,76.74-1.52,2.82-.05,5.66-.27,5.51,3.53h3.26c.53-1.2.93-3.36,1.61-3.44,3-.33,6.75-1.16,7.07,3.44h4.34l-.69-3.25c3.69-1.1,6.4-.71,7.85,2.2V507.43l-.12-.38.12,0v-7.89l-7-.46.27-2.4ZM3.19,516.4c2.45-10.31,4.47-11.79,15.07-10.84C14.28,516.59,13,517.48,3.19,516.4Zm17.64-32.07c1-6.6,5.55-4.12,10-4C29,486.63,24.32,483.41,20.83,484.33Zm7,30.2c2-9.89,5.26-11.7,19-10.67C46.06,513.21,41.31,515.88,27.8,514.53Zm63.83-3.14c-13.34.37-26.66,1.28-40.51,2,3.73-10.13,3.73-10.17,14.12-9.88,11,.31,21.92.7,33.08,1.07C98.14,509,96.76,511.24,91.63,511.39Zm6.83,8.83c-.31-3.86,1.42-5.09,5-5.17,20.56-.46,41.12-1,61.69-1.57,0,.3.06.61.1.91Zm108.72-11.6L102,510.72c.26-4.4,1.71-6.52,6.85-6.49,19.86.13,39.75-.66,59.6-.09,12.93.37,25.81,2.49,38.72,3.83C207.19,508.19,207.18,508.4,207.18,508.62Zm4.76-6.12c39.19-4.9,78.4-2.16,117.61-.15A567.26,567.26,0,0,1,211.94,502.5Zm273.48-11.45,0,1.56H448.14Zm-87.33-12.61,82.57,2.66c0,.76-.09,1.52-.13,2.28L398,480.25C398,479.64,398.06,479,398.09,478.44Zm-20.31,8h22v.24h-22ZM359,496.88h65.79C402.74,502.46,380.88,498.4,359,496.88Zm75.56,5.95c21.29-5.2,42.54-4.25,63.79,0ZM505.67,482c5.36,1.32,5.5,6,8.4,10.16C506.06,491.39,507.65,485.53,505.67,482Zm8.61-1.21,11,12C518.43,493,515.73,490.09,514.28,480.8Z"/>
    </g>
  </g>
</svg>
